<?xml version="1.0" encoding="UTF-8"?>
<svg width="480px" height="480px" viewBox="0 0 480 480" version="1.1" xmlns="http://www.w3.org/2000/svg" xmlns:xlink="http://www.w3.org/1999/xlink">
    <!-- Generator: Sketch 55.1 (78136) - https://sketchapp.com -->
    <title>hero_image_desktop</title>
    <desc>Created with Sketch.</desc>
    <defs>
        <polygon id="path-1" points="0 480 480.1 480 480.1 0 0 0"></polygon>
        <polygon id="path-3" points="0.1 0.001 160.1 0.001 160.1 160 0.1 160"></polygon>
        <polygon id="path-5" points="0.1 0.001 160.1 0.001 160.1 160 0.1 160"></polygon>
        <polygon id="path-7" points="0.1 0 160.1 0 160.1 160 0.1 160"></polygon>
        <polygon id="path-9" points="0.1 0 160.1 0 160.1 160 0.1 160"></polygon>
    </defs>
    <g id="hero_image_desktop" stroke="none" stroke-width="1" fill="none" fill-rule="evenodd">
        <g id="Group-329">
            <polygon id="Fill-1" fill="#FF4730" points="0.1 480 160.1 480 160.1 320 0.1 320"></polygon>
            <g id="Group-301">
                <path d="M23.1996,343.0215 C23.1996,343.8775 22.5056,344.5715 21.6496,344.5715 C20.7936,344.5715 20.0996,343.8775 20.0996,343.0215 C20.0996,342.1665 20.7936,341.4715 21.6496,341.4715 C22.5056,341.4715 23.1996,342.1665 23.1996,343.0215" id="Fill-2" fill="#211E40"></path>
                <path d="M33.827,343.0215 C33.827,343.8775 33.133,344.5715 32.277,344.5715 C31.421,344.5715 30.727,343.8775 30.727,343.0215 C30.727,342.1665 31.421,341.4715 32.277,341.4715 C33.133,341.4715 33.827,342.1665 33.827,343.0215" id="Fill-4" fill="#211E40"></path>
                <path d="M44.4545,343.0215 C44.4545,343.8775 43.7605,344.5715 42.9045,344.5715 C42.0485,344.5715 41.3545,343.8775 41.3545,343.0215 C41.3545,342.1665 42.0485,341.4715 42.9045,341.4715 C43.7605,341.4715 44.4545,342.1665 44.4545,343.0215" id="Fill-6" fill="#211E40"></path>
                <path d="M55.0814,343.0215 C55.0814,343.8775 54.3874,344.5715 53.5314,344.5715 C52.6754,344.5715 51.9814,343.8775 51.9814,343.0215 C51.9814,342.1665 52.6754,341.4715 53.5314,341.4715 C54.3874,341.4715 55.0814,342.1665 55.0814,343.0215" id="Fill-8" fill="#211E40"></path>
                <path d="M65.7089,343.0215 C65.7089,343.8775 65.0149,344.5715 64.1589,344.5715 C63.3029,344.5715 62.6089,343.8775 62.6089,343.0215 C62.6089,342.1665 63.3029,341.4715 64.1589,341.4715 C65.0149,341.4715 65.7089,342.1665 65.7089,343.0215" id="Fill-10" fill="#211E40"></path>
                <path d="M76.3363,343.0215 C76.3363,343.8775 75.6423,344.5715 74.7863,344.5715 C73.9303,344.5715 73.2363,343.8775 73.2363,343.0215 C73.2363,342.1665 73.9303,341.4715 74.7863,341.4715 C75.6423,341.4715 76.3363,342.1665 76.3363,343.0215" id="Fill-12" fill="#211E40"></path>
                <path d="M86.9633,343.0215 C86.9633,343.8775 86.2693,344.5715 85.4133,344.5715 C84.5573,344.5715 83.8633,343.8775 83.8633,343.0215 C83.8633,342.1665 84.5573,341.4715 85.4133,341.4715 C86.2693,341.4715 86.9633,342.1665 86.9633,343.0215" id="Fill-14" fill="#211E40"></path>
                <path d="M97.5907,343.0215 C97.5907,343.8775 96.8967,344.5715 96.0407,344.5715 C95.1847,344.5715 94.4907,343.8775 94.4907,343.0215 C94.4907,342.1665 95.1847,341.4715 96.0407,341.4715 C96.8967,341.4715 97.5907,342.1665 97.5907,343.0215" id="Fill-16" fill="#211E40"></path>
                <path d="M108.2181,343.0215 C108.2181,343.8775 107.5241,344.5715 106.6681,344.5715 C105.8121,344.5715 105.1181,343.8775 105.1181,343.0215 C105.1181,342.1665 105.8121,341.4715 106.6681,341.4715 C107.5241,341.4715 108.2181,342.1665 108.2181,343.0215" id="Fill-18" fill="#211E40"></path>
                <path d="M118.8456,343.0215 C118.8456,343.8775 118.1516,344.5715 117.2956,344.5715 C116.4396,344.5715 115.7456,343.8775 115.7456,343.0215 C115.7456,342.1665 116.4396,341.4715 117.2956,341.4715 C118.1516,341.4715 118.8456,342.1665 118.8456,343.0215" id="Fill-20" fill="#211E40"></path>
                <path d="M129.4725,343.0215 C129.4725,343.8775 128.7785,344.5715 127.9225,344.5715 C127.0665,344.5715 126.3725,343.8775 126.3725,343.0215 C126.3725,342.1665 127.0665,341.4715 127.9225,341.4715 C128.7785,341.4715 129.4725,342.1665 129.4725,343.0215" id="Fill-22" fill="#211E40"></path>
                <path d="M140.1,343.0215 C140.1,343.8775 139.406,344.5715 138.55,344.5715 C137.694,344.5715 137,343.8775 137,343.0215 C137,342.1665 137.694,341.4715 138.55,341.4715 C139.406,341.4715 140.1,342.1665 140.1,343.0215" id="Fill-24" fill="#211E40"></path>
                <path d="M23.1996,353.3809 C23.1996,354.2369 22.5056,354.9309 21.6496,354.9309 C20.7936,354.9309 20.0996,354.2369 20.0996,353.3809 C20.0996,352.5259 20.7936,351.8309 21.6496,351.8309 C22.5056,351.8309 23.1996,352.5259 23.1996,353.3809" id="Fill-26" fill="#211E40"></path>
                <path d="M33.827,353.3809 C33.827,354.2369 33.133,354.9309 32.277,354.9309 C31.421,354.9309 30.727,354.2369 30.727,353.3809 C30.727,352.5259 31.421,351.8309 32.277,351.8309 C33.133,351.8309 33.827,352.5259 33.827,353.3809" id="Fill-28" fill="#211E40"></path>
                <path d="M44.4545,353.3809 C44.4545,354.2369 43.7605,354.9309 42.9045,354.9309 C42.0485,354.9309 41.3545,354.2369 41.3545,353.3809 C41.3545,352.5259 42.0485,351.8309 42.9045,351.8309 C43.7605,351.8309 44.4545,352.5259 44.4545,353.3809" id="Fill-30" fill="#211E40"></path>
                <path d="M55.0814,353.3809 C55.0814,354.2369 54.3874,354.9309 53.5314,354.9309 C52.6754,354.9309 51.9814,354.2369 51.9814,353.3809 C51.9814,352.5259 52.6754,351.8309 53.5314,351.8309 C54.3874,351.8309 55.0814,352.5259 55.0814,353.3809" id="Fill-32" fill="#211E40"></path>
                <path d="M65.7089,353.3809 C65.7089,354.2369 65.0149,354.9309 64.1589,354.9309 C63.3029,354.9309 62.6089,354.2369 62.6089,353.3809 C62.6089,352.5259 63.3029,351.8309 64.1589,351.8309 C65.0149,351.8309 65.7089,352.5259 65.7089,353.3809" id="Fill-34" fill="#211E40"></path>
                <path d="M76.3363,353.3809 C76.3363,354.2369 75.6423,354.9309 74.7863,354.9309 C73.9303,354.9309 73.2363,354.2369 73.2363,353.3809 C73.2363,352.5259 73.9303,351.8309 74.7863,351.8309 C75.6423,351.8309 76.3363,352.5259 76.3363,353.3809" id="Fill-36" fill="#211E40"></path>
                <path d="M86.9633,353.3809 C86.9633,354.2369 86.2693,354.9309 85.4133,354.9309 C84.5573,354.9309 83.8633,354.2369 83.8633,353.3809 C83.8633,352.5259 84.5573,351.8309 85.4133,351.8309 C86.2693,351.8309 86.9633,352.5259 86.9633,353.3809" id="Fill-38" fill="#211E40"></path>
                <path d="M97.5907,353.3809 C97.5907,354.2369 96.8967,354.9309 96.0407,354.9309 C95.1847,354.9309 94.4907,354.2369 94.4907,353.3809 C94.4907,352.5259 95.1847,351.8309 96.0407,351.8309 C96.8967,351.8309 97.5907,352.5259 97.5907,353.3809" id="Fill-40" fill="#211E40"></path>
                <path d="M108.2181,353.3809 C108.2181,354.2369 107.5241,354.9309 106.6681,354.9309 C105.8121,354.9309 105.1181,354.2369 105.1181,353.3809 C105.1181,352.5259 105.8121,351.8309 106.6681,351.8309 C107.5241,351.8309 108.2181,352.5259 108.2181,353.3809" id="Fill-42" fill="#211E40"></path>
                <path d="M118.8456,353.3809 C118.8456,354.2369 118.1516,354.9309 117.2956,354.9309 C116.4396,354.9309 115.7456,354.2369 115.7456,353.3809 C115.7456,352.5259 116.4396,351.8309 117.2956,351.8309 C118.1516,351.8309 118.8456,352.5259 118.8456,353.3809" id="Fill-44" fill="#211E40"></path>
                <path d="M129.4725,353.3809 C129.4725,354.2369 128.7785,354.9309 127.9225,354.9309 C127.0665,354.9309 126.3725,354.2369 126.3725,353.3809 C126.3725,352.5259 127.0665,351.8309 127.9225,351.8309 C128.7785,351.8309 129.4725,352.5259 129.4725,353.3809" id="Fill-46" fill="#211E40"></path>
                <path d="M140.1,353.3809 C140.1,354.2369 139.406,354.9309 138.55,354.9309 C137.694,354.9309 137,354.2369 137,353.3809 C137,352.5259 137.694,351.8309 138.55,351.8309 C139.406,351.8309 140.1,352.5259 140.1,353.3809" id="Fill-48" fill="#211E40"></path>
                <path d="M23.1996,363.7412 C23.1996,364.5962 22.5056,365.2912 21.6496,365.2912 C20.7936,365.2912 20.0996,364.5962 20.0996,363.7412 C20.0996,362.8852 20.7936,362.1912 21.6496,362.1912 C22.5056,362.1912 23.1996,362.8852 23.1996,363.7412" id="Fill-50" fill="#211E40"></path>
                <path d="M33.827,363.7412 C33.827,364.5962 33.133,365.2912 32.277,365.2912 C31.421,365.2912 30.727,364.5962 30.727,363.7412 C30.727,362.8852 31.421,362.1912 32.277,362.1912 C33.133,362.1912 33.827,362.8852 33.827,363.7412" id="Fill-52" fill="#211E40"></path>
                <path d="M44.4545,363.7412 C44.4545,364.5962 43.7605,365.2912 42.9045,365.2912 C42.0485,365.2912 41.3545,364.5962 41.3545,363.7412 C41.3545,362.8852 42.0485,362.1912 42.9045,362.1912 C43.7605,362.1912 44.4545,362.8852 44.4545,363.7412" id="Fill-54" fill="#211E40"></path>
                <path d="M55.0814,363.7412 C55.0814,364.5962 54.3874,365.2912 53.5314,365.2912 C52.6754,365.2912 51.9814,364.5962 51.9814,363.7412 C51.9814,362.8852 52.6754,362.1912 53.5314,362.1912 C54.3874,362.1912 55.0814,362.8852 55.0814,363.7412" id="Fill-56" fill="#211E40"></path>
                <path d="M65.7089,363.7412 C65.7089,364.5962 65.0149,365.2912 64.1589,365.2912 C63.3029,365.2912 62.6089,364.5962 62.6089,363.7412 C62.6089,362.8852 63.3029,362.1912 64.1589,362.1912 C65.0149,362.1912 65.7089,362.8852 65.7089,363.7412" id="Fill-58" fill="#211E40"></path>
                <path d="M76.3363,363.7412 C76.3363,364.5962 75.6423,365.2912 74.7863,365.2912 C73.9303,365.2912 73.2363,364.5962 73.2363,363.7412 C73.2363,362.8852 73.9303,362.1912 74.7863,362.1912 C75.6423,362.1912 76.3363,362.8852 76.3363,363.7412" id="Fill-60" fill="#211E40"></path>
                <path d="M86.9633,363.7412 C86.9633,364.5962 86.2693,365.2912 85.4133,365.2912 C84.5573,365.2912 83.8633,364.5962 83.8633,363.7412 C83.8633,362.8852 84.5573,362.1912 85.4133,362.1912 C86.2693,362.1912 86.9633,362.8852 86.9633,363.7412" id="Fill-62" fill="#211E40"></path>
                <path d="M97.5907,363.7412 C97.5907,364.5962 96.8967,365.2912 96.0407,365.2912 C95.1847,365.2912 94.4907,364.5962 94.4907,363.7412 C94.4907,362.8852 95.1847,362.1912 96.0407,362.1912 C96.8967,362.1912 97.5907,362.8852 97.5907,363.7412" id="Fill-64" fill="#211E40"></path>
                <path d="M108.2181,363.7412 C108.2181,364.5962 107.5241,365.2912 106.6681,365.2912 C105.8121,365.2912 105.1181,364.5962 105.1181,363.7412 C105.1181,362.8852 105.8121,362.1912 106.6681,362.1912 C107.5241,362.1912 108.2181,362.8852 108.2181,363.7412" id="Fill-66" fill="#211E40"></path>
                <path d="M118.8456,363.7412 C118.8456,364.5962 118.1516,365.2912 117.2956,365.2912 C116.4396,365.2912 115.7456,364.5962 115.7456,363.7412 C115.7456,362.8852 116.4396,362.1912 117.2956,362.1912 C118.1516,362.1912 118.8456,362.8852 118.8456,363.7412" id="Fill-68" fill="#211E40"></path>
                <path d="M129.4725,363.7412 C129.4725,364.5962 128.7785,365.2912 127.9225,365.2912 C127.0665,365.2912 126.3725,364.5962 126.3725,363.7412 C126.3725,362.8852 127.0665,362.1912 127.9225,362.1912 C128.7785,362.1912 129.4725,362.8852 129.4725,363.7412" id="Fill-70" fill="#211E40"></path>
                <path d="M140.1,363.7412 C140.1,364.5962 139.406,365.2912 138.55,365.2912 C137.694,365.2912 137,364.5962 137,363.7412 C137,362.8852 137.694,362.1912 138.55,362.1912 C139.406,362.1912 140.1,362.8852 140.1,363.7412" id="Fill-72" fill="#211E40"></path>
                <path d="M23.1996,374.1006 C23.1996,374.9566 22.5056,375.6506 21.6496,375.6506 C20.7936,375.6506 20.0996,374.9566 20.0996,374.1006 C20.0996,373.2456 20.7936,372.5506 21.6496,372.5506 C22.5056,372.5506 23.1996,373.2456 23.1996,374.1006" id="Fill-74" fill="#211E40"></path>
                <path d="M33.827,374.1006 C33.827,374.9566 33.133,375.6506 32.277,375.6506 C31.421,375.6506 30.727,374.9566 30.727,374.1006 C30.727,373.2456 31.421,372.5506 32.277,372.5506 C33.133,372.5506 33.827,373.2456 33.827,374.1006" id="Fill-76" fill="#211E40"></path>
                <path d="M44.4545,374.1006 C44.4545,374.9566 43.7605,375.6506 42.9045,375.6506 C42.0485,375.6506 41.3545,374.9566 41.3545,374.1006 C41.3545,373.2456 42.0485,372.5506 42.9045,372.5506 C43.7605,372.5506 44.4545,373.2456 44.4545,374.1006" id="Fill-78" fill="#211E40"></path>
                <path d="M55.0814,374.1006 C55.0814,374.9566 54.3874,375.6506 53.5314,375.6506 C52.6754,375.6506 51.9814,374.9566 51.9814,374.1006 C51.9814,373.2456 52.6754,372.5506 53.5314,372.5506 C54.3874,372.5506 55.0814,373.2456 55.0814,374.1006" id="Fill-80" fill="#211E40"></path>
                <path d="M65.7089,374.1006 C65.7089,374.9566 65.0149,375.6506 64.1589,375.6506 C63.3029,375.6506 62.6089,374.9566 62.6089,374.1006 C62.6089,373.2456 63.3029,372.5506 64.1589,372.5506 C65.0149,372.5506 65.7089,373.2456 65.7089,374.1006" id="Fill-82" fill="#211E40"></path>
                <path d="M76.3363,374.1006 C76.3363,374.9566 75.6423,375.6506 74.7863,375.6506 C73.9303,375.6506 73.2363,374.9566 73.2363,374.1006 C73.2363,373.2456 73.9303,372.5506 74.7863,372.5506 C75.6423,372.5506 76.3363,373.2456 76.3363,374.1006" id="Fill-84" fill="#211E40"></path>
                <path d="M86.9633,374.1006 C86.9633,374.9566 86.2693,375.6506 85.4133,375.6506 C84.5573,375.6506 83.8633,374.9566 83.8633,374.1006 C83.8633,373.2456 84.5573,372.5506 85.4133,372.5506 C86.2693,372.5506 86.9633,373.2456 86.9633,374.1006" id="Fill-86" fill="#211E40"></path>
                <path d="M97.5907,374.1006 C97.5907,374.9566 96.8967,375.6506 96.0407,375.6506 C95.1847,375.6506 94.4907,374.9566 94.4907,374.1006 C94.4907,373.2456 95.1847,372.5506 96.0407,372.5506 C96.8967,372.5506 97.5907,373.2456 97.5907,374.1006" id="Fill-88" fill="#211E40"></path>
                <path d="M108.2181,374.1006 C108.2181,374.9566 107.5241,375.6506 106.6681,375.6506 C105.8121,375.6506 105.1181,374.9566 105.1181,374.1006 C105.1181,373.2456 105.8121,372.5506 106.6681,372.5506 C107.5241,372.5506 108.2181,373.2456 108.2181,374.1006" id="Fill-90" fill="#211E40"></path>
                <path d="M118.8456,374.1006 C118.8456,374.9566 118.1516,375.6506 117.2956,375.6506 C116.4396,375.6506 115.7456,374.9566 115.7456,374.1006 C115.7456,373.2456 116.4396,372.5506 117.2956,372.5506 C118.1516,372.5506 118.8456,373.2456 118.8456,374.1006" id="Fill-92" fill="#211E40"></path>
                <path d="M129.4725,374.1006 C129.4725,374.9566 128.7785,375.6506 127.9225,375.6506 C127.0665,375.6506 126.3725,374.9566 126.3725,374.1006 C126.3725,373.2456 127.0665,372.5506 127.9225,372.5506 C128.7785,372.5506 129.4725,373.2456 129.4725,374.1006" id="Fill-94" fill="#211E40"></path>
                <path d="M140.1,374.1006 C140.1,374.9566 139.406,375.6506 138.55,375.6506 C137.694,375.6506 137,374.9566 137,374.1006 C137,373.2456 137.694,372.5506 138.55,372.5506 C139.406,372.5506 140.1,373.2456 140.1,374.1006" id="Fill-96" fill="#211E40"></path>
                <path d="M23.1996,384.46 C23.1996,385.316 22.5056,386.01 21.6496,386.01 C20.7936,386.01 20.0996,385.316 20.0996,384.46 C20.0996,383.605 20.7936,382.91 21.6496,382.91 C22.5056,382.91 23.1996,383.605 23.1996,384.46" id="Fill-98" fill="#211E40"></path>
                <path d="M33.827,384.46 C33.827,385.316 33.133,386.01 32.277,386.01 C31.421,386.01 30.727,385.316 30.727,384.46 C30.727,383.605 31.421,382.91 32.277,382.91 C33.133,382.91 33.827,383.605 33.827,384.46" id="Fill-100" fill="#211E40"></path>
                <path d="M44.4545,384.46 C44.4545,385.316 43.7605,386.01 42.9045,386.01 C42.0485,386.01 41.3545,385.316 41.3545,384.46 C41.3545,383.605 42.0485,382.91 42.9045,382.91 C43.7605,382.91 44.4545,383.605 44.4545,384.46" id="Fill-102" fill="#211E40"></path>
                <path d="M55.0814,384.46 C55.0814,385.316 54.3874,386.01 53.5314,386.01 C52.6754,386.01 51.9814,385.316 51.9814,384.46 C51.9814,383.605 52.6754,382.91 53.5314,382.91 C54.3874,382.91 55.0814,383.605 55.0814,384.46" id="Fill-104" fill="#211E40"></path>
                <path d="M65.7089,384.46 C65.7089,385.316 65.0149,386.01 64.1589,386.01 C63.3029,386.01 62.6089,385.316 62.6089,384.46 C62.6089,383.605 63.3029,382.91 64.1589,382.91 C65.0149,382.91 65.7089,383.605 65.7089,384.46" id="Fill-106" fill="#211E40"></path>
                <path d="M76.3363,384.46 C76.3363,385.316 75.6423,386.01 74.7863,386.01 C73.9303,386.01 73.2363,385.316 73.2363,384.46 C73.2363,383.605 73.9303,382.91 74.7863,382.91 C75.6423,382.91 76.3363,383.605 76.3363,384.46" id="Fill-108" fill="#211E40"></path>
                <path d="M86.9633,384.46 C86.9633,385.316 86.2693,386.01 85.4133,386.01 C84.5573,386.01 83.8633,385.316 83.8633,384.46 C83.8633,383.605 84.5573,382.91 85.4133,382.91 C86.2693,382.91 86.9633,383.605 86.9633,384.46" id="Fill-110" fill="#211E40"></path>
                <path d="M97.5907,384.46 C97.5907,385.316 96.8967,386.01 96.0407,386.01 C95.1847,386.01 94.4907,385.316 94.4907,384.46 C94.4907,383.605 95.1847,382.91 96.0407,382.91 C96.8967,382.91 97.5907,383.605 97.5907,384.46" id="Fill-112" fill="#211E40"></path>
                <path d="M108.2181,384.46 C108.2181,385.316 107.5241,386.01 106.6681,386.01 C105.8121,386.01 105.1181,385.316 105.1181,384.46 C105.1181,383.605 105.8121,382.91 106.6681,382.91 C107.5241,382.91 108.2181,383.605 108.2181,384.46" id="Fill-114" fill="#211E40"></path>
                <path d="M118.8456,384.46 C118.8456,385.316 118.1516,386.01 117.2956,386.01 C116.4396,386.01 115.7456,385.316 115.7456,384.46 C115.7456,383.605 116.4396,382.91 117.2956,382.91 C118.1516,382.91 118.8456,383.605 118.8456,384.46" id="Fill-116" fill="#211E40"></path>
                <path d="M129.4725,384.46 C129.4725,385.316 128.7785,386.01 127.9225,386.01 C127.0665,386.01 126.3725,385.316 126.3725,384.46 C126.3725,383.605 127.0665,382.91 127.9225,382.91 C128.7785,382.91 129.4725,383.605 129.4725,384.46" id="Fill-118" fill="#211E40"></path>
                <path d="M140.1,384.46 C140.1,385.316 139.406,386.01 138.55,386.01 C137.694,386.01 137,385.316 137,384.46 C137,383.605 137.694,382.91 138.55,382.91 C139.406,382.91 140.1,383.605 140.1,384.46" id="Fill-120" fill="#211E40"></path>
                <path d="M23.1996,394.8203 C23.1996,395.6753 22.5056,396.3703 21.6496,396.3703 C20.7936,396.3703 20.0996,395.6753 20.0996,394.8203 C20.0996,393.9643 20.7936,393.2703 21.6496,393.2703 C22.5056,393.2703 23.1996,393.9643 23.1996,394.8203" id="Fill-122" fill="#211E40"></path>
                <path d="M33.827,394.8203 C33.827,395.6753 33.133,396.3703 32.277,396.3703 C31.421,396.3703 30.727,395.6753 30.727,394.8203 C30.727,393.9643 31.421,393.2703 32.277,393.2703 C33.133,393.2703 33.827,393.9643 33.827,394.8203" id="Fill-124" fill="#211E40"></path>
                <path d="M44.4545,394.8203 C44.4545,395.6753 43.7605,396.3703 42.9045,396.3703 C42.0485,396.3703 41.3545,395.6753 41.3545,394.8203 C41.3545,393.9643 42.0485,393.2703 42.9045,393.2703 C43.7605,393.2703 44.4545,393.9643 44.4545,394.8203" id="Fill-126" fill="#211E40"></path>
                <path d="M55.0814,394.8203 C55.0814,395.6753 54.3874,396.3703 53.5314,396.3703 C52.6754,396.3703 51.9814,395.6753 51.9814,394.8203 C51.9814,393.9643 52.6754,393.2703 53.5314,393.2703 C54.3874,393.2703 55.0814,393.9643 55.0814,394.8203" id="Fill-128" fill="#211E40"></path>
                <path d="M65.7089,394.8203 C65.7089,395.6753 65.0149,396.3703 64.1589,396.3703 C63.3029,396.3703 62.6089,395.6753 62.6089,394.8203 C62.6089,393.9643 63.3029,393.2703 64.1589,393.2703 C65.0149,393.2703 65.7089,393.9643 65.7089,394.8203" id="Fill-130" fill="#211E40"></path>
                <path d="M76.3363,394.8203 C76.3363,395.6753 75.6423,396.3703 74.7863,396.3703 C73.9303,396.3703 73.2363,395.6753 73.2363,394.8203 C73.2363,393.9643 73.9303,393.2703 74.7863,393.2703 C75.6423,393.2703 76.3363,393.9643 76.3363,394.8203" id="Fill-132" fill="#211E40"></path>
                <path d="M86.9633,394.8203 C86.9633,395.6753 86.2693,396.3703 85.4133,396.3703 C84.5573,396.3703 83.8633,395.6753 83.8633,394.8203 C83.8633,393.9643 84.5573,393.2703 85.4133,393.2703 C86.2693,393.2703 86.9633,393.9643 86.9633,394.8203" id="Fill-134" fill="#211E40"></path>
                <path d="M97.5907,394.8203 C97.5907,395.6753 96.8967,396.3703 96.0407,396.3703 C95.1847,396.3703 94.4907,395.6753 94.4907,394.8203 C94.4907,393.9643 95.1847,393.2703 96.0407,393.2703 C96.8967,393.2703 97.5907,393.9643 97.5907,394.8203" id="Fill-136" fill="#211E40"></path>
                <path d="M108.2181,394.8203 C108.2181,395.6753 107.5241,396.3703 106.6681,396.3703 C105.8121,396.3703 105.1181,395.6753 105.1181,394.8203 C105.1181,393.9643 105.8121,393.2703 106.6681,393.2703 C107.5241,393.2703 108.2181,393.9643 108.2181,394.8203" id="Fill-138" fill="#211E40"></path>
                <path d="M118.8456,394.8203 C118.8456,395.6753 118.1516,396.3703 117.2956,396.3703 C116.4396,396.3703 115.7456,395.6753 115.7456,394.8203 C115.7456,393.9643 116.4396,393.2703 117.2956,393.2703 C118.1516,393.2703 118.8456,393.9643 118.8456,394.8203" id="Fill-140" fill="#211E40"></path>
                <path d="M129.4725,394.8203 C129.4725,395.6753 128.7785,396.3703 127.9225,396.3703 C127.0665,396.3703 126.3725,395.6753 126.3725,394.8203 C126.3725,393.9643 127.0665,393.2703 127.9225,393.2703 C128.7785,393.2703 129.4725,393.9643 129.4725,394.8203" id="Fill-142" fill="#211E40"></path>
                <path d="M140.1,394.8203 C140.1,395.6753 139.406,396.3703 138.55,396.3703 C137.694,396.3703 137,395.6753 137,394.8203 C137,393.9643 137.694,393.2703 138.55,393.2703 C139.406,393.2703 140.1,393.9643 140.1,394.8203" id="Fill-144" fill="#211E40"></path>
                <path d="M23.1996,405.1797 C23.1996,406.0357 22.5056,406.7297 21.6496,406.7297 C20.7936,406.7297 20.0996,406.0357 20.0996,405.1797 C20.0996,404.3247 20.7936,403.6297 21.6496,403.6297 C22.5056,403.6297 23.1996,404.3247 23.1996,405.1797" id="Fill-146" fill="#211E40"></path>
                <path d="M33.827,405.1797 C33.827,406.0357 33.133,406.7297 32.277,406.7297 C31.421,406.7297 30.727,406.0357 30.727,405.1797 C30.727,404.3247 31.421,403.6297 32.277,403.6297 C33.133,403.6297 33.827,404.3247 33.827,405.1797" id="Fill-148" fill="#211E40"></path>
                <path d="M44.4545,405.1797 C44.4545,406.0357 43.7605,406.7297 42.9045,406.7297 C42.0485,406.7297 41.3545,406.0357 41.3545,405.1797 C41.3545,404.3247 42.0485,403.6297 42.9045,403.6297 C43.7605,403.6297 44.4545,404.3247 44.4545,405.1797" id="Fill-150" fill="#211E40"></path>
                <path d="M55.0814,405.1797 C55.0814,406.0357 54.3874,406.7297 53.5314,406.7297 C52.6754,406.7297 51.9814,406.0357 51.9814,405.1797 C51.9814,404.3247 52.6754,403.6297 53.5314,403.6297 C54.3874,403.6297 55.0814,404.3247 55.0814,405.1797" id="Fill-152" fill="#211E40"></path>
                <path d="M65.7089,405.1797 C65.7089,406.0357 65.0149,406.7297 64.1589,406.7297 C63.3029,406.7297 62.6089,406.0357 62.6089,405.1797 C62.6089,404.3247 63.3029,403.6297 64.1589,403.6297 C65.0149,403.6297 65.7089,404.3247 65.7089,405.1797" id="Fill-154" fill="#211E40"></path>
                <path d="M76.3363,405.1797 C76.3363,406.0357 75.6423,406.7297 74.7863,406.7297 C73.9303,406.7297 73.2363,406.0357 73.2363,405.1797 C73.2363,404.3247 73.9303,403.6297 74.7863,403.6297 C75.6423,403.6297 76.3363,404.3247 76.3363,405.1797" id="Fill-156" fill="#211E40"></path>
                <path d="M86.9633,405.1797 C86.9633,406.0357 86.2693,406.7297 85.4133,406.7297 C84.5573,406.7297 83.8633,406.0357 83.8633,405.1797 C83.8633,404.3247 84.5573,403.6297 85.4133,403.6297 C86.2693,403.6297 86.9633,404.3247 86.9633,405.1797" id="Fill-158" fill="#211E40"></path>
                <path d="M97.5907,405.1797 C97.5907,406.0357 96.8967,406.7297 96.0407,406.7297 C95.1847,406.7297 94.4907,406.0357 94.4907,405.1797 C94.4907,404.3247 95.1847,403.6297 96.0407,403.6297 C96.8967,403.6297 97.5907,404.3247 97.5907,405.1797" id="Fill-160" fill="#211E40"></path>
                <path d="M108.2181,405.1797 C108.2181,406.0357 107.5241,406.7297 106.6681,406.7297 C105.8121,406.7297 105.1181,406.0357 105.1181,405.1797 C105.1181,404.3247 105.8121,403.6297 106.6681,403.6297 C107.5241,403.6297 108.2181,404.3247 108.2181,405.1797" id="Fill-162" fill="#211E40"></path>
                <path d="M118.8456,405.1797 C118.8456,406.0357 118.1516,406.7297 117.2956,406.7297 C116.4396,406.7297 115.7456,406.0357 115.7456,405.1797 C115.7456,404.3247 116.4396,403.6297 117.2956,403.6297 C118.1516,403.6297 118.8456,404.3247 118.8456,405.1797" id="Fill-164" fill="#211E40"></path>
                <path d="M129.4725,405.1797 C129.4725,406.0357 128.7785,406.7297 127.9225,406.7297 C127.0665,406.7297 126.3725,406.0357 126.3725,405.1797 C126.3725,404.3247 127.0665,403.6297 127.9225,403.6297 C128.7785,403.6297 129.4725,404.3247 129.4725,405.1797" id="Fill-166" fill="#211E40"></path>
                <path d="M140.1,405.1797 C140.1,406.0357 139.406,406.7297 138.55,406.7297 C137.694,406.7297 137,406.0357 137,405.1797 C137,404.3247 137.694,403.6297 138.55,403.6297 C139.406,403.6297 140.1,404.3247 140.1,405.1797" id="Fill-168" fill="#211E40"></path>
                <path d="M23.1996,415.5391 C23.1996,416.3951 22.5056,417.0891 21.6496,417.0891 C20.7936,417.0891 20.0996,416.3951 20.0996,415.5391 C20.0996,414.6841 20.7936,413.9891 21.6496,413.9891 C22.5056,413.9891 23.1996,414.6841 23.1996,415.5391" id="Fill-170" fill="#211E40"></path>
                <path d="M33.827,415.5391 C33.827,416.3951 33.133,417.0891 32.277,417.0891 C31.421,417.0891 30.727,416.3951 30.727,415.5391 C30.727,414.6841 31.421,413.9891 32.277,413.9891 C33.133,413.9891 33.827,414.6841 33.827,415.5391" id="Fill-172" fill="#211E40"></path>
                <path d="M44.4545,415.5391 C44.4545,416.3951 43.7605,417.0891 42.9045,417.0891 C42.0485,417.0891 41.3545,416.3951 41.3545,415.5391 C41.3545,414.6841 42.0485,413.9891 42.9045,413.9891 C43.7605,413.9891 44.4545,414.6841 44.4545,415.5391" id="Fill-174" fill="#211E40"></path>
                <path d="M55.0814,415.5391 C55.0814,416.3951 54.3874,417.0891 53.5314,417.0891 C52.6754,417.0891 51.9814,416.3951 51.9814,415.5391 C51.9814,414.6841 52.6754,413.9891 53.5314,413.9891 C54.3874,413.9891 55.0814,414.6841 55.0814,415.5391" id="Fill-176" fill="#211E40"></path>
                <path d="M65.7089,415.5391 C65.7089,416.3951 65.0149,417.0891 64.1589,417.0891 C63.3029,417.0891 62.6089,416.3951 62.6089,415.5391 C62.6089,414.6841 63.3029,413.9891 64.1589,413.9891 C65.0149,413.9891 65.7089,414.6841 65.7089,415.5391" id="Fill-178" fill="#211E40"></path>
                <path d="M76.3363,415.5391 C76.3363,416.3951 75.6423,417.0891 74.7863,417.0891 C73.9303,417.0891 73.2363,416.3951 73.2363,415.5391 C73.2363,414.6841 73.9303,413.9891 74.7863,413.9891 C75.6423,413.9891 76.3363,414.6841 76.3363,415.5391" id="Fill-180" fill="#211E40"></path>
                <path d="M86.9633,415.5391 C86.9633,416.3951 86.2693,417.0891 85.4133,417.0891 C84.5573,417.0891 83.8633,416.3951 83.8633,415.5391 C83.8633,414.6841 84.5573,413.9891 85.4133,413.9891 C86.2693,413.9891 86.9633,414.6841 86.9633,415.5391" id="Fill-182" fill="#211E40"></path>
                <path d="M97.5907,415.5391 C97.5907,416.3951 96.8967,417.0891 96.0407,417.0891 C95.1847,417.0891 94.4907,416.3951 94.4907,415.5391 C94.4907,414.6841 95.1847,413.9891 96.0407,413.9891 C96.8967,413.9891 97.5907,414.6841 97.5907,415.5391" id="Fill-184" fill="#211E40"></path>
                <path d="M108.2181,415.5391 C108.2181,416.3951 107.5241,417.0891 106.6681,417.0891 C105.8121,417.0891 105.1181,416.3951 105.1181,415.5391 C105.1181,414.6841 105.8121,413.9891 106.6681,413.9891 C107.5241,413.9891 108.2181,414.6841 108.2181,415.5391" id="Fill-186" fill="#211E40"></path>
                <path d="M118.8456,415.5391 C118.8456,416.3951 118.1516,417.0891 117.2956,417.0891 C116.4396,417.0891 115.7456,416.3951 115.7456,415.5391 C115.7456,414.6841 116.4396,413.9891 117.2956,413.9891 C118.1516,413.9891 118.8456,414.6841 118.8456,415.5391" id="Fill-188" fill="#211E40"></path>
                <path d="M129.4725,415.5391 C129.4725,416.3951 128.7785,417.0891 127.9225,417.0891 C127.0665,417.0891 126.3725,416.3951 126.3725,415.5391 C126.3725,414.6841 127.0665,413.9891 127.9225,413.9891 C128.7785,413.9891 129.4725,414.6841 129.4725,415.5391" id="Fill-190" fill="#211E40"></path>
                <path d="M140.1,415.5391 C140.1,416.3951 139.406,417.0891 138.55,417.0891 C137.694,417.0891 137,416.3951 137,415.5391 C137,414.6841 137.694,413.9891 138.55,413.9891 C139.406,413.9891 140.1,414.6841 140.1,415.5391" id="Fill-192" fill="#211E40"></path>
                <path d="M23.1996,425.8994 C23.1996,426.7544 22.5056,427.4494 21.6496,427.4494 C20.7936,427.4494 20.0996,426.7544 20.0996,425.8994 C20.0996,425.0434 20.7936,424.3494 21.6496,424.3494 C22.5056,424.3494 23.1996,425.0434 23.1996,425.8994" id="Fill-194" fill="#211E40"></path>
                <path d="M33.827,425.8994 C33.827,426.7544 33.133,427.4494 32.277,427.4494 C31.421,427.4494 30.727,426.7544 30.727,425.8994 C30.727,425.0434 31.421,424.3494 32.277,424.3494 C33.133,424.3494 33.827,425.0434 33.827,425.8994" id="Fill-196" fill="#211E40"></path>
                <path d="M44.4545,425.8994 C44.4545,426.7544 43.7605,427.4494 42.9045,427.4494 C42.0485,427.4494 41.3545,426.7544 41.3545,425.8994 C41.3545,425.0434 42.0485,424.3494 42.9045,424.3494 C43.7605,424.3494 44.4545,425.0434 44.4545,425.8994" id="Fill-198" fill="#211E40"></path>
                <path d="M55.0814,425.8994 C55.0814,426.7544 54.3874,427.4494 53.5314,427.4494 C52.6754,427.4494 51.9814,426.7544 51.9814,425.8994 C51.9814,425.0434 52.6754,424.3494 53.5314,424.3494 C54.3874,424.3494 55.0814,425.0434 55.0814,425.8994" id="Fill-200" fill="#211E40"></path>
                <path d="M65.7089,425.8994 C65.7089,426.7544 65.0149,427.4494 64.1589,427.4494 C63.3029,427.4494 62.6089,426.7544 62.6089,425.8994 C62.6089,425.0434 63.3029,424.3494 64.1589,424.3494 C65.0149,424.3494 65.7089,425.0434 65.7089,425.8994" id="Fill-202" fill="#211E40"></path>
                <path d="M76.3363,425.8994 C76.3363,426.7544 75.6423,427.4494 74.7863,427.4494 C73.9303,427.4494 73.2363,426.7544 73.2363,425.8994 C73.2363,425.0434 73.9303,424.3494 74.7863,424.3494 C75.6423,424.3494 76.3363,425.0434 76.3363,425.8994" id="Fill-204" fill="#211E40"></path>
                <path d="M86.9633,425.8994 C86.9633,426.7544 86.2693,427.4494 85.4133,427.4494 C84.5573,427.4494 83.8633,426.7544 83.8633,425.8994 C83.8633,425.0434 84.5573,424.3494 85.4133,424.3494 C86.2693,424.3494 86.9633,425.0434 86.9633,425.8994" id="Fill-206" fill="#211E40"></path>
                <path d="M97.5907,425.8994 C97.5907,426.7544 96.8967,427.4494 96.0407,427.4494 C95.1847,427.4494 94.4907,426.7544 94.4907,425.8994 C94.4907,425.0434 95.1847,424.3494 96.0407,424.3494 C96.8967,424.3494 97.5907,425.0434 97.5907,425.8994" id="Fill-208" fill="#211E40"></path>
                <path d="M108.2181,425.8994 C108.2181,426.7544 107.5241,427.4494 106.6681,427.4494 C105.8121,427.4494 105.1181,426.7544 105.1181,425.8994 C105.1181,425.0434 105.8121,424.3494 106.6681,424.3494 C107.5241,424.3494 108.2181,425.0434 108.2181,425.8994" id="Fill-210" fill="#211E40"></path>
                <path d="M118.8456,425.8994 C118.8456,426.7544 118.1516,427.4494 117.2956,427.4494 C116.4396,427.4494 115.7456,426.7544 115.7456,425.8994 C115.7456,425.0434 116.4396,424.3494 117.2956,424.3494 C118.1516,424.3494 118.8456,425.0434 118.8456,425.8994" id="Fill-212" fill="#211E40"></path>
                <path d="M129.4725,425.8994 C129.4725,426.7544 128.7785,427.4494 127.9225,427.4494 C127.0665,427.4494 126.3725,426.7544 126.3725,425.8994 C126.3725,425.0434 127.0665,424.3494 127.9225,424.3494 C128.7785,424.3494 129.4725,425.0434 129.4725,425.8994" id="Fill-214" fill="#211E40"></path>
                <path d="M140.1,425.8994 C140.1,426.7544 139.406,427.4494 138.55,427.4494 C137.694,427.4494 137,426.7544 137,425.8994 C137,425.0434 137.694,424.3494 138.55,424.3494 C139.406,424.3494 140.1,425.0434 140.1,425.8994" id="Fill-216" fill="#211E40"></path>
                <path d="M23.1996,436.2588 C23.1996,437.1148 22.5056,437.8088 21.6496,437.8088 C20.7936,437.8088 20.0996,437.1148 20.0996,436.2588 C20.0996,435.4038 20.7936,434.7088 21.6496,434.7088 C22.5056,434.7088 23.1996,435.4038 23.1996,436.2588" id="Fill-218" fill="#211E40"></path>
                <path d="M33.827,436.2588 C33.827,437.1148 33.133,437.8088 32.277,437.8088 C31.421,437.8088 30.727,437.1148 30.727,436.2588 C30.727,435.4038 31.421,434.7088 32.277,434.7088 C33.133,434.7088 33.827,435.4038 33.827,436.2588" id="Fill-220" fill="#211E40"></path>
                <path d="M44.4545,436.2588 C44.4545,437.1148 43.7605,437.8088 42.9045,437.8088 C42.0485,437.8088 41.3545,437.1148 41.3545,436.2588 C41.3545,435.4038 42.0485,434.7088 42.9045,434.7088 C43.7605,434.7088 44.4545,435.4038 44.4545,436.2588" id="Fill-222" fill="#211E40"></path>
                <path d="M55.0814,436.2588 C55.0814,437.1148 54.3874,437.8088 53.5314,437.8088 C52.6754,437.8088 51.9814,437.1148 51.9814,436.2588 C51.9814,435.4038 52.6754,434.7088 53.5314,434.7088 C54.3874,434.7088 55.0814,435.4038 55.0814,436.2588" id="Fill-224" fill="#211E40"></path>
                <path d="M65.7089,436.2588 C65.7089,437.1148 65.0149,437.8088 64.1589,437.8088 C63.3029,437.8088 62.6089,437.1148 62.6089,436.2588 C62.6089,435.4038 63.3029,434.7088 64.1589,434.7088 C65.0149,434.7088 65.7089,435.4038 65.7089,436.2588" id="Fill-226" fill="#211E40"></path>
                <path d="M76.3363,436.2588 C76.3363,437.1148 75.6423,437.8088 74.7863,437.8088 C73.9303,437.8088 73.2363,437.1148 73.2363,436.2588 C73.2363,435.4038 73.9303,434.7088 74.7863,434.7088 C75.6423,434.7088 76.3363,435.4038 76.3363,436.2588" id="Fill-228" fill="#211E40"></path>
                <path d="M86.9633,436.2588 C86.9633,437.1148 86.2693,437.8088 85.4133,437.8088 C84.5573,437.8088 83.8633,437.1148 83.8633,436.2588 C83.8633,435.4038 84.5573,434.7088 85.4133,434.7088 C86.2693,434.7088 86.9633,435.4038 86.9633,436.2588" id="Fill-230" fill="#211E40"></path>
                <path d="M97.5907,436.2588 C97.5907,437.1148 96.8967,437.8088 96.0407,437.8088 C95.1847,437.8088 94.4907,437.1148 94.4907,436.2588 C94.4907,435.4038 95.1847,434.7088 96.0407,434.7088 C96.8967,434.7088 97.5907,435.4038 97.5907,436.2588" id="Fill-232" fill="#211E40"></path>
                <path d="M108.2181,436.2588 C108.2181,437.1148 107.5241,437.8088 106.6681,437.8088 C105.8121,437.8088 105.1181,437.1148 105.1181,436.2588 C105.1181,435.4038 105.8121,434.7088 106.6681,434.7088 C107.5241,434.7088 108.2181,435.4038 108.2181,436.2588" id="Fill-234" fill="#211E40"></path>
                <path d="M118.8456,436.2588 C118.8456,437.1148 118.1516,437.8088 117.2956,437.8088 C116.4396,437.8088 115.7456,437.1148 115.7456,436.2588 C115.7456,435.4038 116.4396,434.7088 117.2956,434.7088 C118.1516,434.7088 118.8456,435.4038 118.8456,436.2588" id="Fill-236" fill="#211E40"></path>
                <path d="M129.4725,436.2588 C129.4725,437.1148 128.7785,437.8088 127.9225,437.8088 C127.0665,437.8088 126.3725,437.1148 126.3725,436.2588 C126.3725,435.4038 127.0665,434.7088 127.9225,434.7088 C128.7785,434.7088 129.4725,435.4038 129.4725,436.2588" id="Fill-238" fill="#211E40"></path>
                <path d="M140.1,436.2588 C140.1,437.1148 139.406,437.8088 138.55,437.8088 C137.694,437.8088 137,437.1148 137,436.2588 C137,435.4038 137.694,434.7088 138.55,434.7088 C139.406,434.7088 140.1,435.4038 140.1,436.2588" id="Fill-240" fill="#211E40"></path>
                <path d="M23.1996,446.6192 C23.1996,447.4742 22.5056,448.1692 21.6496,448.1692 C20.7936,448.1692 20.0996,447.4742 20.0996,446.6192 C20.0996,445.7632 20.7936,445.0692 21.6496,445.0692 C22.5056,445.0692 23.1996,445.7632 23.1996,446.6192" id="Fill-242" fill="#211E40"></path>
                <path d="M33.827,446.6192 C33.827,447.4742 33.133,448.1692 32.277,448.1692 C31.421,448.1692 30.727,447.4742 30.727,446.6192 C30.727,445.7632 31.421,445.0692 32.277,445.0692 C33.133,445.0692 33.827,445.7632 33.827,446.6192" id="Fill-244" fill="#211E40"></path>
                <path d="M44.4545,446.6192 C44.4545,447.4742 43.7605,448.1692 42.9045,448.1692 C42.0485,448.1692 41.3545,447.4742 41.3545,446.6192 C41.3545,445.7632 42.0485,445.0692 42.9045,445.0692 C43.7605,445.0692 44.4545,445.7632 44.4545,446.6192" id="Fill-246" fill="#211E40"></path>
                <path d="M55.0814,446.6192 C55.0814,447.4742 54.3874,448.1692 53.5314,448.1692 C52.6754,448.1692 51.9814,447.4742 51.9814,446.6192 C51.9814,445.7632 52.6754,445.0692 53.5314,445.0692 C54.3874,445.0692 55.0814,445.7632 55.0814,446.6192" id="Fill-248" fill="#211E40"></path>
                <path d="M65.7089,446.6192 C65.7089,447.4742 65.0149,448.1692 64.1589,448.1692 C63.3029,448.1692 62.6089,447.4742 62.6089,446.6192 C62.6089,445.7632 63.3029,445.0692 64.1589,445.0692 C65.0149,445.0692 65.7089,445.7632 65.7089,446.6192" id="Fill-250" fill="#211E40"></path>
                <path d="M76.3363,446.6192 C76.3363,447.4742 75.6423,448.1692 74.7863,448.1692 C73.9303,448.1692 73.2363,447.4742 73.2363,446.6192 C73.2363,445.7632 73.9303,445.0692 74.7863,445.0692 C75.6423,445.0692 76.3363,445.7632 76.3363,446.6192" id="Fill-252" fill="#211E40"></path>
                <path d="M86.9633,446.6192 C86.9633,447.4742 86.2693,448.1692 85.4133,448.1692 C84.5573,448.1692 83.8633,447.4742 83.8633,446.6192 C83.8633,445.7632 84.5573,445.0692 85.4133,445.0692 C86.2693,445.0692 86.9633,445.7632 86.9633,446.6192" id="Fill-254" fill="#211E40"></path>
                <path d="M97.5907,446.6192 C97.5907,447.4742 96.8967,448.1692 96.0407,448.1692 C95.1847,448.1692 94.4907,447.4742 94.4907,446.6192 C94.4907,445.7632 95.1847,445.0692 96.0407,445.0692 C96.8967,445.0692 97.5907,445.7632 97.5907,446.6192" id="Fill-256" fill="#211E40"></path>
                <path d="M108.2181,446.6192 C108.2181,447.4742 107.5241,448.1692 106.6681,448.1692 C105.8121,448.1692 105.1181,447.4742 105.1181,446.6192 C105.1181,445.7632 105.8121,445.0692 106.6681,445.0692 C107.5241,445.0692 108.2181,445.7632 108.2181,446.6192" id="Fill-258" fill="#211E40"></path>
                <path d="M118.8456,446.6192 C118.8456,447.4742 118.1516,448.1692 117.2956,448.1692 C116.4396,448.1692 115.7456,447.4742 115.7456,446.6192 C115.7456,445.7632 116.4396,445.0692 117.2956,445.0692 C118.1516,445.0692 118.8456,445.7632 118.8456,446.6192" id="Fill-260" fill="#211E40"></path>
                <path d="M129.4725,446.6192 C129.4725,447.4742 128.7785,448.1692 127.9225,448.1692 C127.0665,448.1692 126.3725,447.4742 126.3725,446.6192 C126.3725,445.7632 127.0665,445.0692 127.9225,445.0692 C128.7785,445.0692 129.4725,445.7632 129.4725,446.6192" id="Fill-262" fill="#211E40"></path>
                <path d="M140.1,446.6192 C140.1,447.4742 139.406,448.1692 138.55,448.1692 C137.694,448.1692 137,447.4742 137,446.6192 C137,445.7632 137.694,445.0692 138.55,445.0692 C139.406,445.0692 140.1,445.7632 140.1,446.6192" id="Fill-264" fill="#211E40"></path>
                <path d="M23.1996,456.9785 C23.1996,457.8335 22.5056,458.5285 21.6496,458.5285 C20.7936,458.5285 20.0996,457.8335 20.0996,456.9785 C20.0996,456.1225 20.7936,455.4285 21.6496,455.4285 C22.5056,455.4285 23.1996,456.1225 23.1996,456.9785" id="Fill-266" fill="#211E40"></path>
                <path d="M33.827,456.9785 C33.827,457.8335 33.133,458.5285 32.277,458.5285 C31.421,458.5285 30.727,457.8335 30.727,456.9785 C30.727,456.1225 31.421,455.4285 32.277,455.4285 C33.133,455.4285 33.827,456.1225 33.827,456.9785" id="Fill-268" fill="#211E40"></path>
                <path d="M44.4545,456.9785 C44.4545,457.8335 43.7605,458.5285 42.9045,458.5285 C42.0485,458.5285 41.3545,457.8335 41.3545,456.9785 C41.3545,456.1225 42.0485,455.4285 42.9045,455.4285 C43.7605,455.4285 44.4545,456.1225 44.4545,456.9785" id="Fill-270" fill="#211E40"></path>
                <path d="M55.0814,456.9785 C55.0814,457.8335 54.3874,458.5285 53.5314,458.5285 C52.6754,458.5285 51.9814,457.8335 51.9814,456.9785 C51.9814,456.1225 52.6754,455.4285 53.5314,455.4285 C54.3874,455.4285 55.0814,456.1225 55.0814,456.9785" id="Fill-272" fill="#211E40"></path>
                <path d="M65.7089,456.9785 C65.7089,457.8335 65.0149,458.5285 64.1589,458.5285 C63.3029,458.5285 62.6089,457.8335 62.6089,456.9785 C62.6089,456.1225 63.3029,455.4285 64.1589,455.4285 C65.0149,455.4285 65.7089,456.1225 65.7089,456.9785" id="Fill-274" fill="#211E40"></path>
                <path d="M76.3363,456.9785 C76.3363,457.8335 75.6423,458.5285 74.7863,458.5285 C73.9303,458.5285 73.2363,457.8335 73.2363,456.9785 C73.2363,456.1225 73.9303,455.4285 74.7863,455.4285 C75.6423,455.4285 76.3363,456.1225 76.3363,456.9785" id="Fill-276" fill="#211E40"></path>
                <path d="M86.9633,456.9785 C86.9633,457.8335 86.2693,458.5285 85.4133,458.5285 C84.5573,458.5285 83.8633,457.8335 83.8633,456.9785 C83.8633,456.1225 84.5573,455.4285 85.4133,455.4285 C86.2693,455.4285 86.9633,456.1225 86.9633,456.9785" id="Fill-278" fill="#211E40"></path>
                <path d="M97.5907,456.9785 C97.5907,457.8335 96.8967,458.5285 96.0407,458.5285 C95.1847,458.5285 94.4907,457.8335 94.4907,456.9785 C94.4907,456.1225 95.1847,455.4285 96.0407,455.4285 C96.8967,455.4285 97.5907,456.1225 97.5907,456.9785" id="Fill-280" fill="#211E40"></path>
                <path d="M108.2181,456.9785 C108.2181,457.8335 107.5241,458.5285 106.6681,458.5285 C105.8121,458.5285 105.1181,457.8335 105.1181,456.9785 C105.1181,456.1225 105.8121,455.4285 106.6681,455.4285 C107.5241,455.4285 108.2181,456.1225 108.2181,456.9785" id="Fill-282" fill="#211E40"></path>
                <path d="M118.8456,456.9785 C118.8456,457.8335 118.1516,458.5285 117.2956,458.5285 C116.4396,458.5285 115.7456,457.8335 115.7456,456.9785 C115.7456,456.1225 116.4396,455.4285 117.2956,455.4285 C118.1516,455.4285 118.8456,456.1225 118.8456,456.9785" id="Fill-284" fill="#211E40"></path>
                <path d="M129.4725,456.9785 C129.4725,457.8335 128.7785,458.5285 127.9225,458.5285 C127.0665,458.5285 126.3725,457.8335 126.3725,456.9785 C126.3725,456.1225 127.0665,455.4285 127.9225,455.4285 C128.7785,455.4285 129.4725,456.1225 129.4725,456.9785" id="Fill-286" fill="#211E40"></path>
                <path d="M140.1,456.9785 C140.1,457.8335 139.406,458.5285 138.55,458.5285 C137.694,458.5285 137,457.8335 137,456.9785 C137,456.1225 137.694,455.4285 138.55,455.4285 C139.406,455.4285 140.1,456.1225 140.1,456.9785" id="Fill-288" fill="#211E40"></path>
                <mask id="mask-2" fill="white">
                    <use xlink:href="#path-1"></use>
                </mask>
                <g id="Clip-291"></g>
                <polygon id="Fill-290" fill="#211E40" mask="url(#mask-2)" points="160.101 480 320.101 480 320.101 320 160.101 320"></polygon>
                <polygon id="Fill-292" fill="#FF4730" mask="url(#mask-2)" points="240.101 480 160.101 400 240.101 320 320.101 400"></polygon>
                <polyline id="Fill-293" fill="#FFB8BA" mask="url(#mask-2)" points="240.101 480 160.101 400 240.101 320"></polyline>
                <polygon id="Fill-294" fill="#211E40" mask="url(#mask-2)" points="400.1 240 480.1 160 480.1 320"></polygon>
                <polygon id="Fill-295" fill="#FFFDFD" mask="url(#mask-2)" points="480.1 160 320.1 160 320.1 320 480.1 320 400.1 240"></polygon>
                <polygon id="Fill-296" fill="#211E40" mask="url(#mask-2)" points="320.1 480 480.1 480 480.1 320 320.1 320"></polygon>
                <polygon id="Fill-297" fill="#6C60E7" mask="url(#mask-2)" points="320.1 480 400.1 480 400.1 320 320.1 320"></polygon>
                <path d="M400.1,360 C400.1,382.092 382.191,400 360.1,400 C338.009,400 320.1,382.092 320.1,360 C320.1,337.908 338.009,320 360.1,320 C382.191,320 400.1,337.908 400.1,360" id="Fill-298" fill="#FFFDFD" mask="url(#mask-2)"></path>
                <path d="M480.1,440 C480.1,462.092 462.191,480 440.1,480 C418.009,480 400.1,462.092 400.1,440 C400.1,417.908 418.009,400 440.1,400 C462.191,400 480.1,417.908 480.1,440" id="Fill-299" fill="#FF4730" mask="url(#mask-2)"></path>
                <polygon id="Fill-300" fill="#6C60E7" mask="url(#mask-2)" points="0.1 160 160.1 160 160.1 0 0.1 0"></polygon>
            </g>
            <g id="Group-304">
                <mask id="mask-4" fill="white">
                    <use xlink:href="#path-3"></use>
                </mask>
                <g id="Clip-303"></g>
                <path d="M159.9999,0 C248.3659,0 319.9999,71.635 319.9999,160 C319.9999,248.365 248.3659,320 159.9999,320 C71.6349,320 -0.0001,248.365 -0.0001,160 C-0.0001,71.635 71.6349,0 159.9999,0 M159.9999,88 C120.2989,88 87.9999,120.299 87.9999,160 C87.9999,199.701 120.2989,232 159.9999,232 C199.7009,232 231.9999,199.701 231.9999,160 C231.9999,120.299 199.7009,88 159.9999,88" id="Fill-302" fill="#FFFDFD" mask="url(#mask-4)"></path>
            </g>
            <polygon id="Fill-305" fill="#211E40" points="160.1 160 320.1 160 320.1 0 160.1 0"></polygon>
            <g id="Group-309" transform="translate(160.000000, 0.000000)">
                <mask id="mask-6" fill="white">
                    <use xlink:href="#path-5"></use>
                </mask>
                <g id="Clip-308"></g>
                <path d="M0.2001,0 C-88.1659,0 -159.7999,71.635 -159.7999,160 C-159.7999,248.365 -88.1659,320 0.2001,320 C88.5661,320 160.2001,248.365 160.2001,160 C160.2001,71.635 88.5661,0 0.2001,0 M0.2001,88 C39.9011,88 72.2001,120.299 72.2001,160 C72.2001,199.701 39.9011,232 0.2001,232 C-39.5009,232 -71.7999,199.701 -71.7999,160 C-71.7999,120.299 -39.5009,88 0.2001,88" id="Fill-307" fill="#FF4730" mask="url(#mask-6)"></path>
            </g>
            <polygon id="Fill-310" fill="#6C60E7" points="160.1 320 320.1 320 320.1 160 160.1 160"></polygon>
            <g id="Group-314" transform="translate(160.000000, 160.000000)">
                <mask id="mask-8" fill="white">
                    <use xlink:href="#path-7"></use>
                </mask>
                <g id="Clip-313"></g>
                <path d="M0.2001,160 C-88.1659,160 -159.7999,88.365 -159.7999,0 C-159.7999,-88.365 -88.1659,-160 0.2001,-160 C88.5661,-160 160.2001,-88.365 160.2001,0 C160.2001,88.365 88.5661,160 0.2001,160 M0.2001,72 C39.9011,72 72.2001,39.701 72.2001,0 C72.2001,-39.701 39.9011,-72 0.2001,-72 C-39.5009,-72 -71.7999,-39.701 -71.7999,0 C-71.7999,39.701 -39.5009,72 0.2001,72" id="Fill-312" fill="#211E40" mask="url(#mask-8)"></path>
            </g>
            <polygon id="Fill-315" fill="#FFFDFD" points="0.1 320 160.1 320 160.1 160 0.1 160"></polygon>
            <g id="Group-319" transform="translate(0.000000, 160.000000)">
                <mask id="mask-10" fill="white">
                    <use xlink:href="#path-9"></use>
                </mask>
                <g id="Clip-318"></g>
                <path d="M159.9999,160 C248.3659,160 319.9999,88.365 319.9999,0 C319.9999,-88.365 248.3659,-160 159.9999,-160 C71.6349,-160 -0.0001,-88.365 -0.0001,0 C-0.0001,88.365 71.6349,160 159.9999,160 M159.9999,72 C120.2989,72 87.9999,39.701 87.9999,0 C87.9999,-39.701 120.2989,-72 159.9999,-72 C199.7009,-72 231.9999,-39.701 231.9999,0 C231.9999,39.701 199.7009,72 159.9999,72" id="Fill-317" fill="#FFB8BA" mask="url(#mask-10)"></path>
            </g>
            <g id="Group-328" transform="translate(160.000000, 0.000000)">
                <polygon id="Fill-320" fill="#211E40" points="160 160 320 160 320 0 160 0"></polygon>
                <path d="M239.9999,40 C239.9999,62.092 222.0909,80 199.9999,80 C177.9089,80 159.9999,62.092 159.9999,40 C159.9999,17.908 177.9089,0 199.9999,0 C222.0909,0 239.9999,17.908 239.9999,40" id="Fill-322" fill="#FFFDFD"></path>
                <path d="M319.9999,40 C319.9999,62.092 302.0909,80 279.9999,80 C257.9089,80 239.9999,62.092 239.9999,40 C239.9999,17.908 257.9089,0 279.9999,0 C302.0909,0 319.9999,17.908 319.9999,40" id="Fill-323" fill="#FF4730"></path>
                <path d="M239.9999,120 C239.9999,142.092 222.0909,160 199.9999,160 C177.9089,160 159.9999,142.092 159.9999,120 C159.9999,97.908 177.9089,80 199.9999,80 C222.0909,80 239.9999,97.908 239.9999,120" id="Fill-324" fill="#FFFDFD"></path>
                <path d="M319.9999,120 C319.9999,142.092 302.0909,160 279.9999,160 C257.9089,160 239.9999,142.092 239.9999,120 C239.9999,97.908 257.9089,80 279.9999,80 C302.0909,80 319.9999,97.908 319.9999,120" id="Fill-325" fill="#FFFDFD"></path>
                <polygon id="Fill-326" fill="#6C60E7" points="0.101 320 160.101 320 160.101 160 0.101 160"></polygon>
                <path d="M160.101,165.3877 L160.101,159.9997 L72.201,159.9997 C72.201,199.7007 39.902,231.9997 0.201,231.9997 C0.167,231.9997 0.135,231.9967 0.101,231.9967 L0.101,319.9997 C0.135,319.9997 0.167,319.9997 0.201,319.9997 C86.763,319.9997 157.259,251.2567 160.101,165.3877" id="Fill-327" fill="#211E40"></path>
            </g>
        </g>
    </g>
</svg>