<?xml version="1.0" encoding="UTF-8"?>
<svg width="444px" height="444px" viewBox="0 0 444 444" version="1.1" xmlns="http://www.w3.org/2000/svg" xmlns:xlink="http://www.w3.org/1999/xlink">
    <!-- Generator: Sketch 55.1 (78136) - https://sketchapp.com -->
    <title>footer_image</title>
    <desc>Created with Sketch.</desc>
    <defs>
        <polygon id="path-1" points="0 444 444 444 444 0 0 0"></polygon>
    </defs>
    <g id="footer_image" stroke="none" stroke-width="1" fill="none" fill-rule="evenodd">
        <g id="Group-174">
            <polygon id="Fill-1" fill="#211E40" points="0 222 222 222 222 0 0 0"></polygon>
            <g id="Group-173">
                <path d="M194.249722,111 C194.249722,156.977587 156.97731,194.25 110.999722,194.25 C65.022135,194.25 27.7497225,156.977587 27.7497225,111 C27.7497225,65.0224125 65.022135,27.75 110.999722,27.75 C156.97731,27.75 194.249722,65.0224125 194.249722,111" id="Fill-2" fill="#FF4730"></path>
                <path d="M152.151724,111 C152.151724,133.72725 133.727111,152.151862 110.999861,152.151862 C88.2726112,152.151862 69.8479988,133.72725 69.8479988,111 C69.8479988,88.27275 88.2726112,69.8481375 110.999861,69.8481375 C133.727111,69.8481375 152.151724,88.27275 152.151724,111" id="Fill-4" fill="#FFFDFD"></path>
                <mask id="mask-2" fill="white">
                    <use xlink:href="#path-1"></use>
                </mask>
                <g id="Clip-7"></g>
                <polygon id="Fill-6" fill="#6C60E7" mask="url(#mask-2)" points="222 222 444 222 444 0 222 0"></polygon>
                <path d="M254.051111,31.9423313 C254.051111,33.1300312 253.088186,34.0929563 251.900486,34.0929563 C250.712786,34.0929563 249.749861,33.1300312 249.749861,31.9423313 C249.749861,30.7560187 250.712786,29.7917062 251.900486,29.7917062 C253.088186,29.7917062 254.051111,30.7560187 254.051111,31.9423313" id="Fill-8" fill="#211E40" mask="url(#mask-2)"></path>
                <path d="M268.795935,31.9423313 C268.795935,33.1300312 267.83301,34.0929563 266.64531,34.0929563 C265.45761,34.0929563 264.494685,33.1300312 264.494685,31.9423313 C264.494685,30.7560187 265.45761,29.7917062 266.64531,29.7917062 C267.83301,29.7917062 268.795935,30.7560187 268.795935,31.9423313" id="Fill-9" fill="#211E40" mask="url(#mask-2)"></path>
                <path d="M283.541452,31.9423313 C283.541452,33.1300312 282.578528,34.0929563 281.390828,34.0929563 C280.203127,34.0929563 279.240203,33.1300312 279.240203,31.9423313 C279.240203,30.7560187 280.203127,29.7917062 281.390828,29.7917062 C282.578528,29.7917062 283.541452,30.7560187 283.541452,31.9423313" id="Fill-10" fill="#211E40" mask="url(#mask-2)"></path>
                <path d="M298.287109,31.9423313 C298.287109,33.1300312 297.324184,34.0929563 296.136484,34.0929563 C294.948784,34.0929563 293.985859,33.1300312 293.985859,31.9423313 C293.985859,30.7560187 294.948784,29.7917062 296.136484,29.7917062 C297.324184,29.7917062 298.287109,30.7560187 298.287109,31.9423313" id="Fill-11" fill="#211E40" mask="url(#mask-2)"></path>
                <path d="M313.032626,31.9423313 C313.032626,33.1300312 312.069701,34.0929563 310.882001,34.0929563 C309.694301,34.0929563 308.731376,33.1300312 308.731376,31.9423313 C308.731376,30.7560187 309.694301,29.7917062 310.882001,29.7917062 C312.069701,29.7917062 313.032626,30.7560187 313.032626,31.9423313" id="Fill-12" fill="#211E40" mask="url(#mask-2)"></path>
                <path d="M327.777589,31.9423313 C327.777589,33.1300312 326.816051,34.0929563 325.626964,34.0929563 C324.440651,34.0929563 323.476339,33.1300312 323.476339,31.9423313 C323.476339,30.7560187 324.440651,29.7917062 325.626964,29.7917062 C326.816051,29.7917062 327.777589,30.7560187 327.777589,31.9423313" id="Fill-13" fill="#211E40" mask="url(#mask-2)"></path>
                <path d="M342.522412,31.9423313 C342.522412,33.1300312 341.560875,34.0929563 340.371787,34.0929563 C339.185475,34.0929563 338.221162,33.1300312 338.221162,31.9423313 C338.221162,30.7560187 339.185475,29.7917062 340.371787,29.7917062 C341.560875,29.7917062 342.522412,30.7560187 342.522412,31.9423313" id="Fill-14" fill="#211E40" mask="url(#mask-2)"></path>
                <path d="M357.268762,31.9423313 C357.268762,33.1300312 356.305837,34.0929563 355.118137,34.0929563 C353.930437,34.0929563 352.967512,33.1300312 352.967512,31.9423313 C352.967512,30.7560187 353.930437,29.7917062 355.118137,29.7917062 C356.305837,29.7917062 357.268762,30.7560187 357.268762,31.9423313" id="Fill-15" fill="#211E40" mask="url(#mask-2)"></path>
                <path d="M372.013586,31.9423313 C372.013586,33.1300312 371.052049,34.0929563 369.862961,34.0929563 C368.676649,34.0929563 367.712336,33.1300312 367.712336,31.9423313 C367.712336,30.7560187 368.676649,29.7917062 369.862961,29.7917062 C371.052049,29.7917062 372.013586,30.7560187 372.013586,31.9423313" id="Fill-16" fill="#211E40" mask="url(#mask-2)"></path>
                <path d="M386.759798,31.9423313 C386.759798,33.1300312 385.796873,34.0929563 384.609172,34.0929563 C383.421473,34.0929563 382.458548,33.1300312 382.458548,31.9423313 C382.458548,30.7560187 383.421473,29.7917062 384.609172,29.7917062 C385.796873,29.7917062 386.759798,30.7560187 386.759798,31.9423313" id="Fill-17" fill="#211E40" mask="url(#mask-2)"></path>
                <path d="M401.50476,31.9423313 C401.50476,33.1300312 400.541835,34.0929563 399.354135,34.0929563 C398.166435,34.0929563 397.20351,33.1300312 397.20351,31.9423313 C397.20351,30.7560187 398.166435,29.7917062 399.354135,29.7917062 C400.541835,29.7917062 401.50476,30.7560187 401.50476,31.9423313" id="Fill-18" fill="#211E40" mask="url(#mask-2)"></path>
                <path d="M416.249722,31.9423313 C416.249722,33.1300312 415.288185,34.0929563 414.099097,34.0929563 C412.912785,34.0929563 411.948472,33.1300312 411.948472,31.9423313 C411.948472,30.7560187 412.912785,29.7917062 414.099097,29.7917062 C415.288185,29.7917062 416.249722,30.7560187 416.249722,31.9423313" id="Fill-19" fill="#211E40" mask="url(#mask-2)"></path>
                <path d="M254.051111,46.3159987 C254.051111,47.5036987 253.088186,48.4666238 251.900486,48.4666238 C250.712786,48.4666238 249.749861,47.5036987 249.749861,46.3159987 C249.749861,45.1296862 250.712786,44.1653737 251.900486,44.1653737 C253.088186,44.1653737 254.051111,45.1296862 254.051111,46.3159987" id="Fill-20" fill="#211E40" mask="url(#mask-2)"></path>
                <path d="M268.795935,46.3159987 C268.795935,47.5036987 267.83301,48.4666238 266.64531,48.4666238 C265.45761,48.4666238 264.494685,47.5036987 264.494685,46.3159987 C264.494685,45.1296862 265.45761,44.1653737 266.64531,44.1653737 C267.83301,44.1653737 268.795935,45.1296862 268.795935,46.3159987" id="Fill-21" fill="#211E40" mask="url(#mask-2)"></path>
                <path d="M283.541452,46.3159987 C283.541452,47.5036987 282.578528,48.4666238 281.390828,48.4666238 C280.203127,48.4666238 279.240203,47.5036987 279.240203,46.3159987 C279.240203,45.1296862 280.203127,44.1653737 281.390828,44.1653737 C282.578528,44.1653737 283.541452,45.1296862 283.541452,46.3159987" id="Fill-22" fill="#211E40" mask="url(#mask-2)"></path>
                <path d="M298.287109,46.3159987 C298.287109,47.5036987 297.324184,48.4666238 296.136484,48.4666238 C294.948784,48.4666238 293.985859,47.5036987 293.985859,46.3159987 C293.985859,45.1296862 294.948784,44.1653737 296.136484,44.1653737 C297.324184,44.1653737 298.287109,45.1296862 298.287109,46.3159987" id="Fill-23" fill="#211E40" mask="url(#mask-2)"></path>
                <path d="M313.032626,46.3159987 C313.032626,47.5036987 312.069701,48.4666238 310.882001,48.4666238 C309.694301,48.4666238 308.731376,47.5036987 308.731376,46.3159987 C308.731376,45.1296862 309.694301,44.1653737 310.882001,44.1653737 C312.069701,44.1653737 313.032626,45.1296862 313.032626,46.3159987" id="Fill-24" fill="#211E40" mask="url(#mask-2)"></path>
                <path d="M327.777589,46.3159987 C327.777589,47.5036987 326.816051,48.4666238 325.626964,48.4666238 C324.440651,48.4666238 323.476339,47.5036987 323.476339,46.3159987 C323.476339,45.1296862 324.440651,44.1653737 325.626964,44.1653737 C326.816051,44.1653737 327.777589,45.1296862 327.777589,46.3159987" id="Fill-25" fill="#211E40" mask="url(#mask-2)"></path>
                <path d="M342.522412,46.3159987 C342.522412,47.5036987 341.560875,48.4666238 340.371787,48.4666238 C339.185475,48.4666238 338.221162,47.5036987 338.221162,46.3159987 C338.221162,45.1296862 339.185475,44.1653737 340.371787,44.1653737 C341.560875,44.1653737 342.522412,45.1296862 342.522412,46.3159987" id="Fill-26" fill="#211E40" mask="url(#mask-2)"></path>
                <path d="M357.268762,46.3159987 C357.268762,47.5036987 356.305837,48.4666238 355.118137,48.4666238 C353.930437,48.4666238 352.967512,47.5036987 352.967512,46.3159987 C352.967512,45.1296862 353.930437,44.1653737 355.118137,44.1653737 C356.305837,44.1653737 357.268762,45.1296862 357.268762,46.3159987" id="Fill-27" fill="#211E40" mask="url(#mask-2)"></path>
                <path d="M372.013586,46.3159987 C372.013586,47.5036987 371.052049,48.4666238 369.862961,48.4666238 C368.676649,48.4666238 367.712336,47.5036987 367.712336,46.3159987 C367.712336,45.1296862 368.676649,44.1653737 369.862961,44.1653737 C371.052049,44.1653737 372.013586,45.1296862 372.013586,46.3159987" id="Fill-28" fill="#211E40" mask="url(#mask-2)"></path>
                <path d="M386.759798,46.3159987 C386.759798,47.5036987 385.796873,48.4666238 384.609172,48.4666238 C383.421473,48.4666238 382.458548,47.5036987 382.458548,46.3159987 C382.458548,45.1296862 383.421473,44.1653737 384.609172,44.1653737 C385.796873,44.1653737 386.759798,45.1296862 386.759798,46.3159987" id="Fill-29" fill="#211E40" mask="url(#mask-2)"></path>
                <path d="M401.50476,46.3159987 C401.50476,47.5036987 400.541835,48.4666238 399.354135,48.4666238 C398.166435,48.4666238 397.20351,47.5036987 397.20351,46.3159987 C397.20351,45.1296862 398.166435,44.1653737 399.354135,44.1653737 C400.541835,44.1653737 401.50476,45.1296862 401.50476,46.3159987" id="Fill-30" fill="#211E40" mask="url(#mask-2)"></path>
                <path d="M416.249722,46.3159987 C416.249722,47.5036987 415.288185,48.4666238 414.099097,48.4666238 C412.912785,48.4666238 411.948472,47.5036987 411.948472,46.3159987 C411.948472,45.1296862 412.912785,44.1653737 414.099097,44.1653737 C415.288185,44.1653737 416.249722,45.1296862 416.249722,46.3159987" id="Fill-31" fill="#211E40" mask="url(#mask-2)"></path>
                <path d="M254.051111,60.690915 C254.051111,61.8772275 253.088186,62.84154 251.900486,62.84154 C250.712786,62.84154 249.749861,61.8772275 249.749861,60.690915 C249.749861,59.503215 250.712786,58.54029 251.900486,58.54029 C253.088186,58.54029 254.051111,59.503215 254.051111,60.690915" id="Fill-32" fill="#211E40" mask="url(#mask-2)"></path>
                <path d="M268.795935,60.690915 C268.795935,61.8772275 267.83301,62.84154 266.64531,62.84154 C265.45761,62.84154 264.494685,61.8772275 264.494685,60.690915 C264.494685,59.503215 265.45761,58.54029 266.64531,58.54029 C267.83301,58.54029 268.795935,59.503215 268.795935,60.690915" id="Fill-33" fill="#211E40" mask="url(#mask-2)"></path>
                <path d="M283.541452,60.690915 C283.541452,61.8772275 282.578528,62.84154 281.390828,62.84154 C280.203127,62.84154 279.240203,61.8772275 279.240203,60.690915 C279.240203,59.503215 280.203127,58.54029 281.390828,58.54029 C282.578528,58.54029 283.541452,59.503215 283.541452,60.690915" id="Fill-34" fill="#211E40" mask="url(#mask-2)"></path>
                <path d="M298.287109,60.690915 C298.287109,61.8772275 297.324184,62.84154 296.136484,62.84154 C294.948784,62.84154 293.985859,61.8772275 293.985859,60.690915 C293.985859,59.503215 294.948784,58.54029 296.136484,58.54029 C297.324184,58.54029 298.287109,59.503215 298.287109,60.690915" id="Fill-35" fill="#211E40" mask="url(#mask-2)"></path>
                <path d="M313.032626,60.690915 C313.032626,61.8772275 312.069701,62.84154 310.882001,62.84154 C309.694301,62.84154 308.731376,61.8772275 308.731376,60.690915 C308.731376,59.503215 309.694301,58.54029 310.882001,58.54029 C312.069701,58.54029 313.032626,59.503215 313.032626,60.690915" id="Fill-36" fill="#211E40" mask="url(#mask-2)"></path>
                <path d="M327.777589,60.690915 C327.777589,61.8772275 326.816051,62.84154 325.626964,62.84154 C324.440651,62.84154 323.476339,61.8772275 323.476339,60.690915 C323.476339,59.503215 324.440651,58.54029 325.626964,58.54029 C326.816051,58.54029 327.777589,59.503215 327.777589,60.690915" id="Fill-37" fill="#211E40" mask="url(#mask-2)"></path>
                <path d="M342.522412,60.690915 C342.522412,61.8772275 341.560875,62.84154 340.371787,62.84154 C339.185475,62.84154 338.221162,61.8772275 338.221162,60.690915 C338.221162,59.503215 339.185475,58.54029 340.371787,58.54029 C341.560875,58.54029 342.522412,59.503215 342.522412,60.690915" id="Fill-38" fill="#211E40" mask="url(#mask-2)"></path>
                <path d="M357.268762,60.690915 C357.268762,61.8772275 356.305837,62.84154 355.118137,62.84154 C353.930437,62.84154 352.967512,61.8772275 352.967512,60.690915 C352.967512,59.503215 353.930437,58.54029 355.118137,58.54029 C356.305837,58.54029 357.268762,59.503215 357.268762,60.690915" id="Fill-39" fill="#211E40" mask="url(#mask-2)"></path>
                <path d="M372.013586,60.690915 C372.013586,61.8772275 371.052049,62.84154 369.862961,62.84154 C368.676649,62.84154 367.712336,61.8772275 367.712336,60.690915 C367.712336,59.503215 368.676649,58.54029 369.862961,58.54029 C371.052049,58.54029 372.013586,59.503215 372.013586,60.690915" id="Fill-40" fill="#211E40" mask="url(#mask-2)"></path>
                <path d="M386.759798,60.690915 C386.759798,61.8772275 385.796873,62.84154 384.609172,62.84154 C383.421473,62.84154 382.458548,61.8772275 382.458548,60.690915 C382.458548,59.503215 383.421473,58.54029 384.609172,58.54029 C385.796873,58.54029 386.759798,59.503215 386.759798,60.690915" id="Fill-41" fill="#211E40" mask="url(#mask-2)"></path>
                <path d="M401.50476,60.690915 C401.50476,61.8772275 400.541835,62.84154 399.354135,62.84154 C398.166435,62.84154 397.20351,61.8772275 397.20351,60.690915 C397.20351,59.503215 398.166435,58.54029 399.354135,58.54029 C400.541835,58.54029 401.50476,59.503215 401.50476,60.690915" id="Fill-42" fill="#211E40" mask="url(#mask-2)"></path>
                <path d="M416.249722,60.690915 C416.249722,61.8772275 415.288185,62.84154 414.099097,62.84154 C412.912785,62.84154 411.948472,61.8772275 411.948472,60.690915 C411.948472,59.503215 412.912785,58.54029 414.099097,58.54029 C415.288185,58.54029 416.249722,59.503215 416.249722,60.690915" id="Fill-43" fill="#211E40" mask="url(#mask-2)"></path>
                <path d="M254.051111,75.0645825 C254.051111,76.2522825 253.088186,77.2152075 251.900486,77.2152075 C250.712786,77.2152075 249.749861,76.2522825 249.749861,75.0645825 C249.749861,73.87827 250.712786,72.9139575 251.900486,72.9139575 C253.088186,72.9139575 254.051111,73.87827 254.051111,75.0645825" id="Fill-44" fill="#211E40" mask="url(#mask-2)"></path>
                <path d="M268.795935,75.0645825 C268.795935,76.2522825 267.83301,77.2152075 266.64531,77.2152075 C265.45761,77.2152075 264.494685,76.2522825 264.494685,75.0645825 C264.494685,73.87827 265.45761,72.9139575 266.64531,72.9139575 C267.83301,72.9139575 268.795935,73.87827 268.795935,75.0645825" id="Fill-45" fill="#211E40" mask="url(#mask-2)"></path>
                <path d="M283.541452,75.0645825 C283.541452,76.2522825 282.578528,77.2152075 281.390828,77.2152075 C280.203127,77.2152075 279.240203,76.2522825 279.240203,75.0645825 C279.240203,73.87827 280.203127,72.9139575 281.390828,72.9139575 C282.578528,72.9139575 283.541452,73.87827 283.541452,75.0645825" id="Fill-46" fill="#211E40" mask="url(#mask-2)"></path>
                <path d="M298.287109,75.0645825 C298.287109,76.2522825 297.324184,77.2152075 296.136484,77.2152075 C294.948784,77.2152075 293.985859,76.2522825 293.985859,75.0645825 C293.985859,73.87827 294.948784,72.9139575 296.136484,72.9139575 C297.324184,72.9139575 298.287109,73.87827 298.287109,75.0645825" id="Fill-47" fill="#211E40" mask="url(#mask-2)"></path>
                <path d="M313.032626,75.0645825 C313.032626,76.2522825 312.069701,77.2152075 310.882001,77.2152075 C309.694301,77.2152075 308.731376,76.2522825 308.731376,75.0645825 C308.731376,73.87827 309.694301,72.9139575 310.882001,72.9139575 C312.069701,72.9139575 313.032626,73.87827 313.032626,75.0645825" id="Fill-48" fill="#211E40" mask="url(#mask-2)"></path>
                <path d="M327.777589,75.0645825 C327.777589,76.2522825 326.816051,77.2152075 325.626964,77.2152075 C324.440651,77.2152075 323.476339,76.2522825 323.476339,75.0645825 C323.476339,73.87827 324.440651,72.9139575 325.626964,72.9139575 C326.816051,72.9139575 327.777589,73.87827 327.777589,75.0645825" id="Fill-49" fill="#211E40" mask="url(#mask-2)"></path>
                <path d="M342.522412,75.0645825 C342.522412,76.2522825 341.560875,77.2152075 340.371787,77.2152075 C339.185475,77.2152075 338.221162,76.2522825 338.221162,75.0645825 C338.221162,73.87827 339.185475,72.9139575 340.371787,72.9139575 C341.560875,72.9139575 342.522412,73.87827 342.522412,75.0645825" id="Fill-50" fill="#211E40" mask="url(#mask-2)"></path>
                <path d="M357.268762,75.0645825 C357.268762,76.2522825 356.305837,77.2152075 355.118137,77.2152075 C353.930437,77.2152075 352.967512,76.2522825 352.967512,75.0645825 C352.967512,73.87827 353.930437,72.9139575 355.118137,72.9139575 C356.305837,72.9139575 357.268762,73.87827 357.268762,75.0645825" id="Fill-51" fill="#211E40" mask="url(#mask-2)"></path>
                <path d="M372.013586,75.0645825 C372.013586,76.2522825 371.052049,77.2152075 369.862961,77.2152075 C368.676649,77.2152075 367.712336,76.2522825 367.712336,75.0645825 C367.712336,73.87827 368.676649,72.9139575 369.862961,72.9139575 C371.052049,72.9139575 372.013586,73.87827 372.013586,75.0645825" id="Fill-52" fill="#211E40" mask="url(#mask-2)"></path>
                <path d="M386.759798,75.0645825 C386.759798,76.2522825 385.796873,77.2152075 384.609172,77.2152075 C383.421473,77.2152075 382.458548,76.2522825 382.458548,75.0645825 C382.458548,73.87827 383.421473,72.9139575 384.609172,72.9139575 C385.796873,72.9139575 386.759798,73.87827 386.759798,75.0645825" id="Fill-53" fill="#211E40" mask="url(#mask-2)"></path>
                <path d="M401.50476,75.0645825 C401.50476,76.2522825 400.541835,77.2152075 399.354135,77.2152075 C398.166435,77.2152075 397.20351,76.2522825 397.20351,75.0645825 C397.20351,73.87827 398.166435,72.9139575 399.354135,72.9139575 C400.541835,72.9139575 401.50476,73.87827 401.50476,75.0645825" id="Fill-54" fill="#211E40" mask="url(#mask-2)"></path>
                <path d="M416.249722,75.0645825 C416.249722,76.2522825 415.288185,77.2152075 414.099097,77.2152075 C412.912785,77.2152075 411.948472,76.2522825 411.948472,75.0645825 C411.948472,73.87827 412.912785,72.9139575 414.099097,72.9139575 C415.288185,72.9139575 416.249722,73.87827 416.249722,75.0645825" id="Fill-55" fill="#211E40" mask="url(#mask-2)"></path>
                <path d="M254.051111,89.43825 C254.051111,90.62595 253.088186,91.588875 251.900486,91.588875 C250.712786,91.588875 249.749861,90.62595 249.749861,89.43825 C249.749861,88.2519375 250.712786,87.287625 251.900486,87.287625 C253.088186,87.287625 254.051111,88.2519375 254.051111,89.43825" id="Fill-56" fill="#211E40" mask="url(#mask-2)"></path>
                <path d="M268.795935,89.43825 C268.795935,90.62595 267.83301,91.588875 266.64531,91.588875 C265.45761,91.588875 264.494685,90.62595 264.494685,89.43825 C264.494685,88.2519375 265.45761,87.287625 266.64531,87.287625 C267.83301,87.287625 268.795935,88.2519375 268.795935,89.43825" id="Fill-57" fill="#211E40" mask="url(#mask-2)"></path>
                <path d="M283.541452,89.43825 C283.541452,90.62595 282.578528,91.588875 281.390828,91.588875 C280.203127,91.588875 279.240203,90.62595 279.240203,89.43825 C279.240203,88.2519375 280.203127,87.287625 281.390828,87.287625 C282.578528,87.287625 283.541452,88.2519375 283.541452,89.43825" id="Fill-58" fill="#211E40" mask="url(#mask-2)"></path>
                <path d="M298.287109,89.43825 C298.287109,90.62595 297.324184,91.588875 296.136484,91.588875 C294.948784,91.588875 293.985859,90.62595 293.985859,89.43825 C293.985859,88.2519375 294.948784,87.287625 296.136484,87.287625 C297.324184,87.287625 298.287109,88.2519375 298.287109,89.43825" id="Fill-59" fill="#211E40" mask="url(#mask-2)"></path>
                <path d="M313.032626,89.43825 C313.032626,90.62595 312.069701,91.588875 310.882001,91.588875 C309.694301,91.588875 308.731376,90.62595 308.731376,89.43825 C308.731376,88.2519375 309.694301,87.287625 310.882001,87.287625 C312.069701,87.287625 313.032626,88.2519375 313.032626,89.43825" id="Fill-60" fill="#211E40" mask="url(#mask-2)"></path>
                <path d="M327.777589,89.43825 C327.777589,90.62595 326.816051,91.588875 325.626964,91.588875 C324.440651,91.588875 323.476339,90.62595 323.476339,89.43825 C323.476339,88.2519375 324.440651,87.287625 325.626964,87.287625 C326.816051,87.287625 327.777589,88.2519375 327.777589,89.43825" id="Fill-61" fill="#211E40" mask="url(#mask-2)"></path>
                <path d="M342.522412,89.43825 C342.522412,90.62595 341.560875,91.588875 340.371787,91.588875 C339.185475,91.588875 338.221162,90.62595 338.221162,89.43825 C338.221162,88.2519375 339.185475,87.287625 340.371787,87.287625 C341.560875,87.287625 342.522412,88.2519375 342.522412,89.43825" id="Fill-62" fill="#211E40" mask="url(#mask-2)"></path>
                <path d="M357.268762,89.43825 C357.268762,90.62595 356.305837,91.588875 355.118137,91.588875 C353.930437,91.588875 352.967512,90.62595 352.967512,89.43825 C352.967512,88.2519375 353.930437,87.287625 355.118137,87.287625 C356.305837,87.287625 357.268762,88.2519375 357.268762,89.43825" id="Fill-63" fill="#211E40" mask="url(#mask-2)"></path>
                <path d="M372.013586,89.43825 C372.013586,90.62595 371.052049,91.588875 369.862961,91.588875 C368.676649,91.588875 367.712336,90.62595 367.712336,89.43825 C367.712336,88.2519375 368.676649,87.287625 369.862961,87.287625 C371.052049,87.287625 372.013586,88.2519375 372.013586,89.43825" id="Fill-64" fill="#211E40" mask="url(#mask-2)"></path>
                <path d="M386.759798,89.43825 C386.759798,90.62595 385.796873,91.588875 384.609172,91.588875 C383.421473,91.588875 382.458548,90.62595 382.458548,89.43825 C382.458548,88.2519375 383.421473,87.287625 384.609172,87.287625 C385.796873,87.287625 386.759798,88.2519375 386.759798,89.43825" id="Fill-65" fill="#211E40" mask="url(#mask-2)"></path>
                <path d="M401.50476,89.43825 C401.50476,90.62595 400.541835,91.588875 399.354135,91.588875 C398.166435,91.588875 397.20351,90.62595 397.20351,89.43825 C397.20351,88.2519375 398.166435,87.287625 399.354135,87.287625 C400.541835,87.287625 401.50476,88.2519375 401.50476,89.43825" id="Fill-66" fill="#211E40" mask="url(#mask-2)"></path>
                <path d="M416.249722,89.43825 C416.249722,90.62595 415.288185,91.588875 414.099097,91.588875 C412.912785,91.588875 411.948472,90.62595 411.948472,89.43825 C411.948472,88.2519375 412.912785,87.287625 414.099097,87.287625 C415.288185,87.287625 416.249722,88.2519375 416.249722,89.43825" id="Fill-67" fill="#211E40" mask="url(#mask-2)"></path>
                <path d="M254.051111,103.813166 C254.051111,104.999479 253.088186,105.963791 251.900486,105.963791 C250.712786,105.963791 249.749861,104.999479 249.749861,103.813166 C249.749861,102.625466 250.712786,101.662541 251.900486,101.662541 C253.088186,101.662541 254.051111,102.625466 254.051111,103.813166" id="Fill-68" fill="#211E40" mask="url(#mask-2)"></path>
                <path d="M268.795935,103.813166 C268.795935,104.999479 267.83301,105.963791 266.64531,105.963791 C265.45761,105.963791 264.494685,104.999479 264.494685,103.813166 C264.494685,102.625466 265.45761,101.662541 266.64531,101.662541 C267.83301,101.662541 268.795935,102.625466 268.795935,103.813166" id="Fill-69" fill="#211E40" mask="url(#mask-2)"></path>
                <path d="M283.541452,103.813166 C283.541452,104.999479 282.578528,105.963791 281.390828,105.963791 C280.203127,105.963791 279.240203,104.999479 279.240203,103.813166 C279.240203,102.625466 280.203127,101.662541 281.390828,101.662541 C282.578528,101.662541 283.541452,102.625466 283.541452,103.813166" id="Fill-70" fill="#211E40" mask="url(#mask-2)"></path>
                <path d="M298.287109,103.813166 C298.287109,104.999479 297.324184,105.963791 296.136484,105.963791 C294.948784,105.963791 293.985859,104.999479 293.985859,103.813166 C293.985859,102.625466 294.948784,101.662541 296.136484,101.662541 C297.324184,101.662541 298.287109,102.625466 298.287109,103.813166" id="Fill-71" fill="#211E40" mask="url(#mask-2)"></path>
                <path d="M313.032626,103.813166 C313.032626,104.999479 312.069701,105.963791 310.882001,105.963791 C309.694301,105.963791 308.731376,104.999479 308.731376,103.813166 C308.731376,102.625466 309.694301,101.662541 310.882001,101.662541 C312.069701,101.662541 313.032626,102.625466 313.032626,103.813166" id="Fill-72" fill="#211E40" mask="url(#mask-2)"></path>
                <path d="M327.777589,103.813166 C327.777589,104.999479 326.816051,105.963791 325.626964,105.963791 C324.440651,105.963791 323.476339,104.999479 323.476339,103.813166 C323.476339,102.625466 324.440651,101.662541 325.626964,101.662541 C326.816051,101.662541 327.777589,102.625466 327.777589,103.813166" id="Fill-73" fill="#211E40" mask="url(#mask-2)"></path>
                <path d="M342.522412,103.813166 C342.522412,104.999479 341.560875,105.963791 340.371787,105.963791 C339.185475,105.963791 338.221162,104.999479 338.221162,103.813166 C338.221162,102.625466 339.185475,101.662541 340.371787,101.662541 C341.560875,101.662541 342.522412,102.625466 342.522412,103.813166" id="Fill-74" fill="#211E40" mask="url(#mask-2)"></path>
                <path d="M357.268762,103.813166 C357.268762,104.999479 356.305837,105.963791 355.118137,105.963791 C353.930437,105.963791 352.967512,104.999479 352.967512,103.813166 C352.967512,102.625466 353.930437,101.662541 355.118137,101.662541 C356.305837,101.662541 357.268762,102.625466 357.268762,103.813166" id="Fill-75" fill="#211E40" mask="url(#mask-2)"></path>
                <path d="M372.013586,103.813166 C372.013586,104.999479 371.052049,105.963791 369.862961,105.963791 C368.676649,105.963791 367.712336,104.999479 367.712336,103.813166 C367.712336,102.625466 368.676649,101.662541 369.862961,101.662541 C371.052049,101.662541 372.013586,102.625466 372.013586,103.813166" id="Fill-76" fill="#211E40" mask="url(#mask-2)"></path>
                <path d="M386.759798,103.813166 C386.759798,104.999479 385.796873,105.963791 384.609172,105.963791 C383.421473,105.963791 382.458548,104.999479 382.458548,103.813166 C382.458548,102.625466 383.421473,101.662541 384.609172,101.662541 C385.796873,101.662541 386.759798,102.625466 386.759798,103.813166" id="Fill-77" fill="#211E40" mask="url(#mask-2)"></path>
                <path d="M401.50476,103.813166 C401.50476,104.999479 400.541835,105.963791 399.354135,105.963791 C398.166435,105.963791 397.20351,104.999479 397.20351,103.813166 C397.20351,102.625466 398.166435,101.662541 399.354135,101.662541 C400.541835,101.662541 401.50476,102.625466 401.50476,103.813166" id="Fill-78" fill="#211E40" mask="url(#mask-2)"></path>
                <path d="M416.249722,103.813166 C416.249722,104.999479 415.288185,105.963791 414.099097,105.963791 C412.912785,105.963791 411.948472,104.999479 411.948472,103.813166 C411.948472,102.625466 412.912785,101.662541 414.099097,101.662541 C415.288185,101.662541 416.249722,102.625466 416.249722,103.813166" id="Fill-79" fill="#211E40" mask="url(#mask-2)"></path>
                <path d="M254.051111,118.186834 C254.051111,119.374534 253.088186,120.337459 251.900486,120.337459 C250.712786,120.337459 249.749861,119.374534 249.749861,118.186834 C249.749861,117.000521 250.712786,116.036209 251.900486,116.036209 C253.088186,116.036209 254.051111,117.000521 254.051111,118.186834" id="Fill-80" fill="#211E40" mask="url(#mask-2)"></path>
                <path d="M268.795935,118.186834 C268.795935,119.374534 267.83301,120.337459 266.64531,120.337459 C265.45761,120.337459 264.494685,119.374534 264.494685,118.186834 C264.494685,117.000521 265.45761,116.036209 266.64531,116.036209 C267.83301,116.036209 268.795935,117.000521 268.795935,118.186834" id="Fill-81" fill="#211E40" mask="url(#mask-2)"></path>
                <path d="M283.541452,118.186834 C283.541452,119.374534 282.578528,120.337459 281.390828,120.337459 C280.203127,120.337459 279.240203,119.374534 279.240203,118.186834 C279.240203,117.000521 280.203127,116.036209 281.390828,116.036209 C282.578528,116.036209 283.541452,117.000521 283.541452,118.186834" id="Fill-82" fill="#211E40" mask="url(#mask-2)"></path>
                <path d="M298.287109,118.186834 C298.287109,119.374534 297.324184,120.337459 296.136484,120.337459 C294.948784,120.337459 293.985859,119.374534 293.985859,118.186834 C293.985859,117.000521 294.948784,116.036209 296.136484,116.036209 C297.324184,116.036209 298.287109,117.000521 298.287109,118.186834" id="Fill-83" fill="#211E40" mask="url(#mask-2)"></path>
                <path d="M313.032626,118.186834 C313.032626,119.374534 312.069701,120.337459 310.882001,120.337459 C309.694301,120.337459 308.731376,119.374534 308.731376,118.186834 C308.731376,117.000521 309.694301,116.036209 310.882001,116.036209 C312.069701,116.036209 313.032626,117.000521 313.032626,118.186834" id="Fill-84" fill="#211E40" mask="url(#mask-2)"></path>
                <path d="M327.777589,118.186834 C327.777589,119.374534 326.816051,120.337459 325.626964,120.337459 C324.440651,120.337459 323.476339,119.374534 323.476339,118.186834 C323.476339,117.000521 324.440651,116.036209 325.626964,116.036209 C326.816051,116.036209 327.777589,117.000521 327.777589,118.186834" id="Fill-85" fill="#211E40" mask="url(#mask-2)"></path>
                <path d="M342.522412,118.186834 C342.522412,119.374534 341.560875,120.337459 340.371787,120.337459 C339.185475,120.337459 338.221162,119.374534 338.221162,118.186834 C338.221162,117.000521 339.185475,116.036209 340.371787,116.036209 C341.560875,116.036209 342.522412,117.000521 342.522412,118.186834" id="Fill-86" fill="#211E40" mask="url(#mask-2)"></path>
                <path d="M357.268762,118.186834 C357.268762,119.374534 356.305837,120.337459 355.118137,120.337459 C353.930437,120.337459 352.967512,119.374534 352.967512,118.186834 C352.967512,117.000521 353.930437,116.036209 355.118137,116.036209 C356.305837,116.036209 357.268762,117.000521 357.268762,118.186834" id="Fill-87" fill="#211E40" mask="url(#mask-2)"></path>
                <path d="M372.013586,118.186834 C372.013586,119.374534 371.052049,120.337459 369.862961,120.337459 C368.676649,120.337459 367.712336,119.374534 367.712336,118.186834 C367.712336,117.000521 368.676649,116.036209 369.862961,116.036209 C371.052049,116.036209 372.013586,117.000521 372.013586,118.186834" id="Fill-88" fill="#211E40" mask="url(#mask-2)"></path>
                <path d="M386.759798,118.186834 C386.759798,119.374534 385.796873,120.337459 384.609172,120.337459 C383.421473,120.337459 382.458548,119.374534 382.458548,118.186834 C382.458548,117.000521 383.421473,116.036209 384.609172,116.036209 C385.796873,116.036209 386.759798,117.000521 386.759798,118.186834" id="Fill-89" fill="#211E40" mask="url(#mask-2)"></path>
                <path d="M401.50476,118.186834 C401.50476,119.374534 400.541835,120.337459 399.354135,120.337459 C398.166435,120.337459 397.20351,119.374534 397.20351,118.186834 C397.20351,117.000521 398.166435,116.036209 399.354135,116.036209 C400.541835,116.036209 401.50476,117.000521 401.50476,118.186834" id="Fill-90" fill="#211E40" mask="url(#mask-2)"></path>
                <path d="M416.249722,118.186834 C416.249722,119.374534 415.288185,120.337459 414.099097,120.337459 C412.912785,120.337459 411.948472,119.374534 411.948472,118.186834 C411.948472,117.000521 412.912785,116.036209 414.099097,116.036209 C415.288185,116.036209 416.249722,117.000521 416.249722,118.186834" id="Fill-91" fill="#211E40" mask="url(#mask-2)"></path>
                <path d="M254.051111,132.560501 C254.051111,133.748201 253.088186,134.711126 251.900486,134.711126 C250.712786,134.711126 249.749861,133.748201 249.749861,132.560501 C249.749861,131.374189 250.712786,130.409876 251.900486,130.409876 C253.088186,130.409876 254.051111,131.374189 254.051111,132.560501" id="Fill-92" fill="#211E40" mask="url(#mask-2)"></path>
                <path d="M268.795935,132.560501 C268.795935,133.748201 267.83301,134.711126 266.64531,134.711126 C265.45761,134.711126 264.494685,133.748201 264.494685,132.560501 C264.494685,131.374189 265.45761,130.409876 266.64531,130.409876 C267.83301,130.409876 268.795935,131.374189 268.795935,132.560501" id="Fill-93" fill="#211E40" mask="url(#mask-2)"></path>
                <path d="M283.541452,132.560501 C283.541452,133.748201 282.578528,134.711126 281.390828,134.711126 C280.203127,134.711126 279.240203,133.748201 279.240203,132.560501 C279.240203,131.374189 280.203127,130.409876 281.390828,130.409876 C282.578528,130.409876 283.541452,131.374189 283.541452,132.560501" id="Fill-94" fill="#211E40" mask="url(#mask-2)"></path>
                <path d="M298.287109,132.560501 C298.287109,133.748201 297.324184,134.711126 296.136484,134.711126 C294.948784,134.711126 293.985859,133.748201 293.985859,132.560501 C293.985859,131.374189 294.948784,130.409876 296.136484,130.409876 C297.324184,130.409876 298.287109,131.374189 298.287109,132.560501" id="Fill-95" fill="#211E40" mask="url(#mask-2)"></path>
                <path d="M313.032626,132.560501 C313.032626,133.748201 312.069701,134.711126 310.882001,134.711126 C309.694301,134.711126 308.731376,133.748201 308.731376,132.560501 C308.731376,131.374189 309.694301,130.409876 310.882001,130.409876 C312.069701,130.409876 313.032626,131.374189 313.032626,132.560501" id="Fill-96" fill="#211E40" mask="url(#mask-2)"></path>
                <path d="M327.777589,132.560501 C327.777589,133.748201 326.816051,134.711126 325.626964,134.711126 C324.440651,134.711126 323.476339,133.748201 323.476339,132.560501 C323.476339,131.374189 324.440651,130.409876 325.626964,130.409876 C326.816051,130.409876 327.777589,131.374189 327.777589,132.560501" id="Fill-97" fill="#211E40" mask="url(#mask-2)"></path>
                <path d="M342.522412,132.560501 C342.522412,133.748201 341.560875,134.711126 340.371787,134.711126 C339.185475,134.711126 338.221162,133.748201 338.221162,132.560501 C338.221162,131.374189 339.185475,130.409876 340.371787,130.409876 C341.560875,130.409876 342.522412,131.374189 342.522412,132.560501" id="Fill-98" fill="#211E40" mask="url(#mask-2)"></path>
                <path d="M357.268762,132.560501 C357.268762,133.748201 356.305837,134.711126 355.118137,134.711126 C353.930437,134.711126 352.967512,133.748201 352.967512,132.560501 C352.967512,131.374189 353.930437,130.409876 355.118137,130.409876 C356.305837,130.409876 357.268762,131.374189 357.268762,132.560501" id="Fill-99" fill="#211E40" mask="url(#mask-2)"></path>
                <path d="M372.013586,132.560501 C372.013586,133.748201 371.052049,134.711126 369.862961,134.711126 C368.676649,134.711126 367.712336,133.748201 367.712336,132.560501 C367.712336,131.374189 368.676649,130.409876 369.862961,130.409876 C371.052049,130.409876 372.013586,131.374189 372.013586,132.560501" id="Fill-100" fill="#211E40" mask="url(#mask-2)"></path>
                <path d="M386.759798,132.560501 C386.759798,133.748201 385.796873,134.711126 384.609172,134.711126 C383.421473,134.711126 382.458548,133.748201 382.458548,132.560501 C382.458548,131.374189 383.421473,130.409876 384.609172,130.409876 C385.796873,130.409876 386.759798,131.374189 386.759798,132.560501" id="Fill-101" fill="#211E40" mask="url(#mask-2)"></path>
                <path d="M401.50476,132.560501 C401.50476,133.748201 400.541835,134.711126 399.354135,134.711126 C398.166435,134.711126 397.20351,133.748201 397.20351,132.560501 C397.20351,131.374189 398.166435,130.409876 399.354135,130.409876 C400.541835,130.409876 401.50476,131.374189 401.50476,132.560501" id="Fill-102" fill="#211E40" mask="url(#mask-2)"></path>
                <path d="M416.249722,132.560501 C416.249722,133.748201 415.288185,134.711126 414.099097,134.711126 C412.912785,134.711126 411.948472,133.748201 411.948472,132.560501 C411.948472,131.374189 412.912785,130.409876 414.099097,130.409876 C415.288185,130.409876 416.249722,131.374189 416.249722,132.560501" id="Fill-103" fill="#211E40" mask="url(#mask-2)"></path>
                <path d="M254.051111,146.935417 C254.051111,148.12173 253.088186,149.086042 251.900486,149.086042 C250.712786,149.086042 249.749861,148.12173 249.749861,146.935417 C249.749861,145.747717 250.712786,144.784792 251.900486,144.784792 C253.088186,144.784792 254.051111,145.747717 254.051111,146.935417" id="Fill-104" fill="#211E40" mask="url(#mask-2)"></path>
                <path d="M268.795935,146.935417 C268.795935,148.12173 267.83301,149.086042 266.64531,149.086042 C265.45761,149.086042 264.494685,148.12173 264.494685,146.935417 C264.494685,145.747717 265.45761,144.784792 266.64531,144.784792 C267.83301,144.784792 268.795935,145.747717 268.795935,146.935417" id="Fill-105" fill="#211E40" mask="url(#mask-2)"></path>
                <path d="M283.541452,146.935417 C283.541452,148.12173 282.578528,149.086042 281.390828,149.086042 C280.203127,149.086042 279.240203,148.12173 279.240203,146.935417 C279.240203,145.747717 280.203127,144.784792 281.390828,144.784792 C282.578528,144.784792 283.541452,145.747717 283.541452,146.935417" id="Fill-106" fill="#211E40" mask="url(#mask-2)"></path>
                <path d="M298.287109,146.935417 C298.287109,148.12173 297.324184,149.086042 296.136484,149.086042 C294.948784,149.086042 293.985859,148.12173 293.985859,146.935417 C293.985859,145.747717 294.948784,144.784792 296.136484,144.784792 C297.324184,144.784792 298.287109,145.747717 298.287109,146.935417" id="Fill-107" fill="#211E40" mask="url(#mask-2)"></path>
                <path d="M313.032626,146.935417 C313.032626,148.12173 312.069701,149.086042 310.882001,149.086042 C309.694301,149.086042 308.731376,148.12173 308.731376,146.935417 C308.731376,145.747717 309.694301,144.784792 310.882001,144.784792 C312.069701,144.784792 313.032626,145.747717 313.032626,146.935417" id="Fill-108" fill="#211E40" mask="url(#mask-2)"></path>
                <path d="M327.777589,146.935417 C327.777589,148.12173 326.816051,149.086042 325.626964,149.086042 C324.440651,149.086042 323.476339,148.12173 323.476339,146.935417 C323.476339,145.747717 324.440651,144.784792 325.626964,144.784792 C326.816051,144.784792 327.777589,145.747717 327.777589,146.935417" id="Fill-109" fill="#211E40" mask="url(#mask-2)"></path>
                <path d="M342.522412,146.935417 C342.522412,148.12173 341.560875,149.086042 340.371787,149.086042 C339.185475,149.086042 338.221162,148.12173 338.221162,146.935417 C338.221162,145.747717 339.185475,144.784792 340.371787,144.784792 C341.560875,144.784792 342.522412,145.747717 342.522412,146.935417" id="Fill-110" fill="#211E40" mask="url(#mask-2)"></path>
                <path d="M357.268762,146.935417 C357.268762,148.12173 356.305837,149.086042 355.118137,149.086042 C353.930437,149.086042 352.967512,148.12173 352.967512,146.935417 C352.967512,145.747717 353.930437,144.784792 355.118137,144.784792 C356.305837,144.784792 357.268762,145.747717 357.268762,146.935417" id="Fill-111" fill="#211E40" mask="url(#mask-2)"></path>
                <path d="M372.013586,146.935417 C372.013586,148.12173 371.052049,149.086042 369.862961,149.086042 C368.676649,149.086042 367.712336,148.12173 367.712336,146.935417 C367.712336,145.747717 368.676649,144.784792 369.862961,144.784792 C371.052049,144.784792 372.013586,145.747717 372.013586,146.935417" id="Fill-112" fill="#211E40" mask="url(#mask-2)"></path>
                <path d="M386.759798,146.935417 C386.759798,148.12173 385.796873,149.086042 384.609172,149.086042 C383.421473,149.086042 382.458548,148.12173 382.458548,146.935417 C382.458548,145.747717 383.421473,144.784792 384.609172,144.784792 C385.796873,144.784792 386.759798,145.747717 386.759798,146.935417" id="Fill-113" fill="#211E40" mask="url(#mask-2)"></path>
                <path d="M401.50476,146.935417 C401.50476,148.12173 400.541835,149.086042 399.354135,149.086042 C398.166435,149.086042 397.20351,148.12173 397.20351,146.935417 C397.20351,145.747717 398.166435,144.784792 399.354135,144.784792 C400.541835,144.784792 401.50476,145.747717 401.50476,146.935417" id="Fill-114" fill="#211E40" mask="url(#mask-2)"></path>
                <path d="M416.249722,146.935417 C416.249722,148.12173 415.288185,149.086042 414.099097,149.086042 C412.912785,149.086042 411.948472,148.12173 411.948472,146.935417 C411.948472,145.747717 412.912785,144.784792 414.099097,144.784792 C415.288185,144.784792 416.249722,145.747717 416.249722,146.935417" id="Fill-115" fill="#211E40" mask="url(#mask-2)"></path>
                <path d="M254.051111,161.309085 C254.051111,162.496785 253.088186,163.45971 251.900486,163.45971 C250.712786,163.45971 249.749861,162.496785 249.749861,161.309085 C249.749861,160.122772 250.712786,159.15846 251.900486,159.15846 C253.088186,159.15846 254.051111,160.122772 254.051111,161.309085" id="Fill-116" fill="#211E40" mask="url(#mask-2)"></path>
                <path d="M268.795935,161.309085 C268.795935,162.496785 267.83301,163.45971 266.64531,163.45971 C265.45761,163.45971 264.494685,162.496785 264.494685,161.309085 C264.494685,160.122772 265.45761,159.15846 266.64531,159.15846 C267.83301,159.15846 268.795935,160.122772 268.795935,161.309085" id="Fill-117" fill="#211E40" mask="url(#mask-2)"></path>
                <path d="M283.541452,161.309085 C283.541452,162.496785 282.578528,163.45971 281.390828,163.45971 C280.203127,163.45971 279.240203,162.496785 279.240203,161.309085 C279.240203,160.122772 280.203127,159.15846 281.390828,159.15846 C282.578528,159.15846 283.541452,160.122772 283.541452,161.309085" id="Fill-118" fill="#211E40" mask="url(#mask-2)"></path>
                <path d="M298.287109,161.309085 C298.287109,162.496785 297.324184,163.45971 296.136484,163.45971 C294.948784,163.45971 293.985859,162.496785 293.985859,161.309085 C293.985859,160.122772 294.948784,159.15846 296.136484,159.15846 C297.324184,159.15846 298.287109,160.122772 298.287109,161.309085" id="Fill-119" fill="#211E40" mask="url(#mask-2)"></path>
                <path d="M313.032626,161.309085 C313.032626,162.496785 312.069701,163.45971 310.882001,163.45971 C309.694301,163.45971 308.731376,162.496785 308.731376,161.309085 C308.731376,160.122772 309.694301,159.15846 310.882001,159.15846 C312.069701,159.15846 313.032626,160.122772 313.032626,161.309085" id="Fill-120" fill="#211E40" mask="url(#mask-2)"></path>
                <path d="M327.777589,161.309085 C327.777589,162.496785 326.816051,163.45971 325.626964,163.45971 C324.440651,163.45971 323.476339,162.496785 323.476339,161.309085 C323.476339,160.122772 324.440651,159.15846 325.626964,159.15846 C326.816051,159.15846 327.777589,160.122772 327.777589,161.309085" id="Fill-121" fill="#211E40" mask="url(#mask-2)"></path>
                <path d="M342.522412,161.309085 C342.522412,162.496785 341.560875,163.45971 340.371787,163.45971 C339.185475,163.45971 338.221162,162.496785 338.221162,161.309085 C338.221162,160.122772 339.185475,159.15846 340.371787,159.15846 C341.560875,159.15846 342.522412,160.122772 342.522412,161.309085" id="Fill-122" fill="#211E40" mask="url(#mask-2)"></path>
                <path d="M357.268762,161.309085 C357.268762,162.496785 356.305837,163.45971 355.118137,163.45971 C353.930437,163.45971 352.967512,162.496785 352.967512,161.309085 C352.967512,160.122772 353.930437,159.15846 355.118137,159.15846 C356.305837,159.15846 357.268762,160.122772 357.268762,161.309085" id="Fill-123" fill="#211E40" mask="url(#mask-2)"></path>
                <path d="M372.013586,161.309085 C372.013586,162.496785 371.052049,163.45971 369.862961,163.45971 C368.676649,163.45971 367.712336,162.496785 367.712336,161.309085 C367.712336,160.122772 368.676649,159.15846 369.862961,159.15846 C371.052049,159.15846 372.013586,160.122772 372.013586,161.309085" id="Fill-124" fill="#211E40" mask="url(#mask-2)"></path>
                <path d="M386.759798,161.309085 C386.759798,162.496785 385.796873,163.45971 384.609172,163.45971 C383.421473,163.45971 382.458548,162.496785 382.458548,161.309085 C382.458548,160.122772 383.421473,159.15846 384.609172,159.15846 C385.796873,159.15846 386.759798,160.122772 386.759798,161.309085" id="Fill-125" fill="#211E40" mask="url(#mask-2)"></path>
                <path d="M401.50476,161.309085 C401.50476,162.496785 400.541835,163.45971 399.354135,163.45971 C398.166435,163.45971 397.20351,162.496785 397.20351,161.309085 C397.20351,160.122772 398.166435,159.15846 399.354135,159.15846 C400.541835,159.15846 401.50476,160.122772 401.50476,161.309085" id="Fill-126" fill="#211E40" mask="url(#mask-2)"></path>
                <path d="M416.249722,161.309085 C416.249722,162.496785 415.288185,163.45971 414.099097,163.45971 C412.912785,163.45971 411.948472,162.496785 411.948472,161.309085 C411.948472,160.122772 412.912785,159.15846 414.099097,159.15846 C415.288185,159.15846 416.249722,160.122772 416.249722,161.309085" id="Fill-127" fill="#211E40" mask="url(#mask-2)"></path>
                <path d="M254.051111,175.68414 C254.051111,176.870452 253.088186,177.834765 251.900486,177.834765 C250.712786,177.834765 249.749861,176.870452 249.749861,175.68414 C249.749861,174.49644 250.712786,173.533515 251.900486,173.533515 C253.088186,173.533515 254.051111,174.49644 254.051111,175.68414" id="Fill-128" fill="#211E40" mask="url(#mask-2)"></path>
                <path d="M268.795935,175.68414 C268.795935,176.870452 267.83301,177.834765 266.64531,177.834765 C265.45761,177.834765 264.494685,176.870452 264.494685,175.68414 C264.494685,174.49644 265.45761,173.533515 266.64531,173.533515 C267.83301,173.533515 268.795935,174.49644 268.795935,175.68414" id="Fill-129" fill="#211E40" mask="url(#mask-2)"></path>
                <path d="M283.541452,175.68414 C283.541452,176.870452 282.578528,177.834765 281.390828,177.834765 C280.203127,177.834765 279.240203,176.870452 279.240203,175.68414 C279.240203,174.49644 280.203127,173.533515 281.390828,173.533515 C282.578528,173.533515 283.541452,174.49644 283.541452,175.68414" id="Fill-130" fill="#211E40" mask="url(#mask-2)"></path>
                <path d="M298.287109,175.68414 C298.287109,176.870452 297.324184,177.834765 296.136484,177.834765 C294.948784,177.834765 293.985859,176.870452 293.985859,175.68414 C293.985859,174.49644 294.948784,173.533515 296.136484,173.533515 C297.324184,173.533515 298.287109,174.49644 298.287109,175.68414" id="Fill-131" fill="#211E40" mask="url(#mask-2)"></path>
                <path d="M313.032626,175.68414 C313.032626,176.870452 312.069701,177.834765 310.882001,177.834765 C309.694301,177.834765 308.731376,176.870452 308.731376,175.68414 C308.731376,174.49644 309.694301,173.533515 310.882001,173.533515 C312.069701,173.533515 313.032626,174.49644 313.032626,175.68414" id="Fill-132" fill="#211E40" mask="url(#mask-2)"></path>
                <path d="M327.777589,175.68414 C327.777589,176.870452 326.816051,177.834765 325.626964,177.834765 C324.440651,177.834765 323.476339,176.870452 323.476339,175.68414 C323.476339,174.49644 324.440651,173.533515 325.626964,173.533515 C326.816051,173.533515 327.777589,174.49644 327.777589,175.68414" id="Fill-133" fill="#211E40" mask="url(#mask-2)"></path>
                <path d="M342.522412,175.68414 C342.522412,176.870452 341.560875,177.834765 340.371787,177.834765 C339.185475,177.834765 338.221162,176.870452 338.221162,175.68414 C338.221162,174.49644 339.185475,173.533515 340.371787,173.533515 C341.560875,173.533515 342.522412,174.49644 342.522412,175.68414" id="Fill-134" fill="#211E40" mask="url(#mask-2)"></path>
                <path d="M357.268762,175.68414 C357.268762,176.870452 356.305837,177.834765 355.118137,177.834765 C353.930437,177.834765 352.967512,176.870452 352.967512,175.68414 C352.967512,174.49644 353.930437,173.533515 355.118137,173.533515 C356.305837,173.533515 357.268762,174.49644 357.268762,175.68414" id="Fill-135" fill="#211E40" mask="url(#mask-2)"></path>
                <path d="M372.013586,175.68414 C372.013586,176.870452 371.052049,177.834765 369.862961,177.834765 C368.676649,177.834765 367.712336,176.870452 367.712336,175.68414 C367.712336,174.49644 368.676649,173.533515 369.862961,173.533515 C371.052049,173.533515 372.013586,174.49644 372.013586,175.68414" id="Fill-136" fill="#211E40" mask="url(#mask-2)"></path>
                <path d="M386.759798,175.68414 C386.759798,176.870452 385.796873,177.834765 384.609172,177.834765 C383.421473,177.834765 382.458548,176.870452 382.458548,175.68414 C382.458548,174.49644 383.421473,173.533515 384.609172,173.533515 C385.796873,173.533515 386.759798,174.49644 386.759798,175.68414" id="Fill-137" fill="#211E40" mask="url(#mask-2)"></path>
                <path d="M401.50476,175.68414 C401.50476,176.870452 400.541835,177.834765 399.354135,177.834765 C398.166435,177.834765 397.20351,176.870452 397.20351,175.68414 C397.20351,174.49644 398.166435,173.533515 399.354135,173.533515 C400.541835,173.533515 401.50476,174.49644 401.50476,175.68414" id="Fill-138" fill="#211E40" mask="url(#mask-2)"></path>
                <path d="M416.249722,175.68414 C416.249722,176.870452 415.288185,177.834765 414.099097,177.834765 C412.912785,177.834765 411.948472,176.870452 411.948472,175.68414 C411.948472,174.49644 412.912785,173.533515 414.099097,173.533515 C415.288185,173.533515 416.249722,174.49644 416.249722,175.68414" id="Fill-139" fill="#211E40" mask="url(#mask-2)"></path>
                <path d="M254.051111,190.057669 C254.051111,191.243981 253.088186,192.208294 251.900486,192.208294 C250.712786,192.208294 249.749861,191.243981 249.749861,190.057669 C249.749861,188.869969 250.712786,187.907044 251.900486,187.907044 C253.088186,187.907044 254.051111,188.869969 254.051111,190.057669" id="Fill-140" fill="#211E40" mask="url(#mask-2)"></path>
                <path d="M268.795935,190.057669 C268.795935,191.243981 267.83301,192.208294 266.64531,192.208294 C265.45761,192.208294 264.494685,191.243981 264.494685,190.057669 C264.494685,188.869969 265.45761,187.907044 266.64531,187.907044 C267.83301,187.907044 268.795935,188.869969 268.795935,190.057669" id="Fill-141" fill="#211E40" mask="url(#mask-2)"></path>
                <path d="M283.541452,190.057669 C283.541452,191.243981 282.578528,192.208294 281.390828,192.208294 C280.203127,192.208294 279.240203,191.243981 279.240203,190.057669 C279.240203,188.869969 280.203127,187.907044 281.390828,187.907044 C282.578528,187.907044 283.541452,188.869969 283.541452,190.057669" id="Fill-142" fill="#211E40" mask="url(#mask-2)"></path>
                <path d="M298.287109,190.057669 C298.287109,191.243981 297.324184,192.208294 296.136484,192.208294 C294.948784,192.208294 293.985859,191.243981 293.985859,190.057669 C293.985859,188.869969 294.948784,187.907044 296.136484,187.907044 C297.324184,187.907044 298.287109,188.869969 298.287109,190.057669" id="Fill-143" fill="#211E40" mask="url(#mask-2)"></path>
                <path d="M313.032626,190.057669 C313.032626,191.243981 312.069701,192.208294 310.882001,192.208294 C309.694301,192.208294 308.731376,191.243981 308.731376,190.057669 C308.731376,188.869969 309.694301,187.907044 310.882001,187.907044 C312.069701,187.907044 313.032626,188.869969 313.032626,190.057669" id="Fill-144" fill="#211E40" mask="url(#mask-2)"></path>
                <path d="M327.777589,190.057669 C327.777589,191.243981 326.816051,192.208294 325.626964,192.208294 C324.440651,192.208294 323.476339,191.243981 323.476339,190.057669 C323.476339,188.869969 324.440651,187.907044 325.626964,187.907044 C326.816051,187.907044 327.777589,188.869969 327.777589,190.057669" id="Fill-145" fill="#211E40" mask="url(#mask-2)"></path>
                <path d="M342.522412,190.057669 C342.522412,191.243981 341.560875,192.208294 340.371787,192.208294 C339.185475,192.208294 338.221162,191.243981 338.221162,190.057669 C338.221162,188.869969 339.185475,187.907044 340.371787,187.907044 C341.560875,187.907044 342.522412,188.869969 342.522412,190.057669" id="Fill-146" fill="#211E40" mask="url(#mask-2)"></path>
                <path d="M357.268762,190.057669 C357.268762,191.243981 356.305837,192.208294 355.118137,192.208294 C353.930437,192.208294 352.967512,191.243981 352.967512,190.057669 C352.967512,188.869969 353.930437,187.907044 355.118137,187.907044 C356.305837,187.907044 357.268762,188.869969 357.268762,190.057669" id="Fill-147" fill="#211E40" mask="url(#mask-2)"></path>
                <path d="M372.013586,190.057669 C372.013586,191.243981 371.052049,192.208294 369.862961,192.208294 C368.676649,192.208294 367.712336,191.243981 367.712336,190.057669 C367.712336,188.869969 368.676649,187.907044 369.862961,187.907044 C371.052049,187.907044 372.013586,188.869969 372.013586,190.057669" id="Fill-148" fill="#211E40" mask="url(#mask-2)"></path>
                <path d="M386.759798,190.057669 C386.759798,191.243981 385.796873,192.208294 384.609172,192.208294 C383.421473,192.208294 382.458548,191.243981 382.458548,190.057669 C382.458548,188.869969 383.421473,187.907044 384.609172,187.907044 C385.796873,187.907044 386.759798,188.869969 386.759798,190.057669" id="Fill-149" fill="#211E40" mask="url(#mask-2)"></path>
                <path d="M401.50476,190.057669 C401.50476,191.243981 400.541835,192.208294 399.354135,192.208294 C398.166435,192.208294 397.20351,191.243981 397.20351,190.057669 C397.20351,188.869969 398.166435,187.907044 399.354135,187.907044 C400.541835,187.907044 401.50476,188.869969 401.50476,190.057669" id="Fill-150" fill="#211E40" mask="url(#mask-2)"></path>
                <path d="M416.249722,190.057669 C416.249722,191.243981 415.288185,192.208294 414.099097,192.208294 C412.912785,192.208294 411.948472,191.243981 411.948472,190.057669 C411.948472,188.869969 412.912785,187.907044 414.099097,187.907044 C415.288185,187.907044 416.249722,188.869969 416.249722,190.057669" id="Fill-151" fill="#211E40" mask="url(#mask-2)"></path>
                <polygon id="Fill-152" fill="#211E40" mask="url(#mask-2)" points="0 444 222 444 222 222 0 222"></polygon>
                <polyline id="Fill-153" fill="#FFFDFD" mask="url(#mask-2)" points="221.999723 222 166.499723 222 166.499723 277.5"></polyline>
                <polyline id="Fill-154" fill="#FFFDFD" mask="url(#mask-2)" points="166.499723 222 110.999723 222 110.999723 277.5"></polyline>
                <polyline id="Fill-155" fill="#FFFDFD" mask="url(#mask-2)" points="110.999723 222 55.4997225 222 55.4997225 277.5"></polyline>
                <polyline id="Fill-156" fill="#FFFDFD" mask="url(#mask-2)" points="55.4997225 222 -0.0002775 222 -0.0002775 277.5"></polyline>
                <polyline id="Fill-157" fill="#FFFDFD" mask="url(#mask-2)" points="221.999723 277.5 166.499723 277.5 166.499723 333"></polyline>
                <polyline id="Fill-158" fill="#FFFDFD" mask="url(#mask-2)" points="166.499723 277.5 110.999723 277.5 110.999723 333"></polyline>
                <polyline id="Fill-159" fill="#FFFDFD" mask="url(#mask-2)" points="110.999723 277.5 55.4997225 277.5 55.4997225 333"></polyline>
                <polyline id="Fill-160" fill="#FFFDFD" mask="url(#mask-2)" points="55.4997225 277.5 -0.0002775 277.5 -0.0002775 333"></polyline>
                <polyline id="Fill-161" fill="#FFFDFD" mask="url(#mask-2)" points="55.4997225 388.5 -0.0002775 388.5 -0.0002775 444"></polyline>
                <polyline id="Fill-162" fill="#FFFDFD" mask="url(#mask-2)" points="110.999723 388.5 55.4997225 388.5 55.4997225 444"></polyline>
                <polyline id="Fill-163" fill="#FFFDFD" mask="url(#mask-2)" points="166.499723 388.5 110.999723 388.5 110.999723 444"></polyline>
                <polyline id="Fill-164" fill="#FFFDFD" mask="url(#mask-2)" points="221.999723 388.5 166.499723 388.5 166.499723 444"></polyline>
                <polyline id="Fill-165" fill="#FFFDFD" mask="url(#mask-2)" points="55.4997225 333 -0.0002775 333 -0.0002775 388.5"></polyline>
                <polyline id="Fill-166" fill="#FFFDFD" mask="url(#mask-2)" points="110.999723 333 55.4997225 333 55.4997225 388.5"></polyline>
                <polyline id="Fill-167" fill="#FFFDFD" mask="url(#mask-2)" points="166.499723 333 110.999723 333 110.999723 388.5"></polyline>
                <polyline id="Fill-168" fill="#FFFDFD" mask="url(#mask-2)" points="221.999723 333 166.499723 333 166.499723 388.5"></polyline>
                <polygon id="Fill-169" fill="#6C60E7" mask="url(#mask-2)" points="332.999723 333 443.999723 222 443.999723 444"></polygon>
                <polygon id="Fill-170" fill="#FF4730" mask="url(#mask-2)" points="332.999723 333 221.999723 222 221.999723 444"></polygon>
                <polygon id="Fill-171" fill="#FFFDFD" mask="url(#mask-2)" points="332.999723 333 221.999723 222 443.999723 222"></polygon>
                <polygon id="Fill-172" fill="#211E40" mask="url(#mask-2)" points="332.999723 333 221.999723 444 443.999723 444"></polygon>
            </g>
        </g>
    </g>
</svg>