<?xml version="1.0" encoding="UTF-8"?>
<svg width="42px" height="42px" viewBox="0 0 42 42" version="1.1" xmlns="http://www.w3.org/2000/svg" xmlns:xlink="http://www.w3.org/1999/xlink">
    <!-- Generator: Sketch 55.1 (78136) - https://sketchapp.com -->
    <title>mobile_logo</title>
    <desc>Created with Sketch.</desc>
    <g id="mobile_logo" stroke="none" stroke-width="1" fill="none" fill-rule="evenodd">
        <path d="M22.1571,39.6851 L39.6851,39.6851 L39.6851,22.1564 L22.1571,22.1564 L22.1571,39.6851 Z M12.236,39.6851 L19.8436,39.6851 L19.8436,22.1564 L12.236,22.1564 L12.236,39.6851 Z M2.3149,39.6851 L9.9211,39.6851 L9.9211,22.1564 L2.3149,22.1564 L2.3149,39.6851 Z M18.2056,2.3149 L2.3149,18.2063 L2.3149,2.3149 L18.2056,2.3149 Z M19.8436,19.8429 L12.2353,19.8429 L9.9211,19.8429 L3.9522,19.8429 L19.8436,3.9508 L19.8436,19.8429 Z M30.1518,19.8429 L22.1571,19.8429 L22.1571,11.8489 C22.8872,15.9131 26.0876,19.1128 30.1518,19.8429 L30.1518,19.8429 Z M31.9137,2.4801 C36.1081,2.4801 39.5199,5.8919 39.5199,10.0863 C39.5199,14.28 36.1081,17.6925 31.9137,17.6925 C27.72,17.6925 24.3075,14.28 24.3075,10.0863 C24.3075,5.8919 27.72,2.4801 31.9137,2.4801 L31.9137,2.4801 Z M33.6756,19.8429 C38.3131,19.0099 41.8355,14.9632 41.8355,10.0863 C41.8355,4.6067 37.3933,0.1645 31.9137,0.1645 C27.0368,0.1645 22.9908,3.6869 22.1571,8.3244 L22.1571,0 L0,0 L0,19.8429 L0,22.1564 L0,42 L9.9211,42 L12.2353,42 L19.8436,42 L22.1571,42 L42,42 L42,19.8429 L33.6756,19.8429 Z" id="Fill-1" fill="#FFFDFD"></path>
    </g>
</svg>