<?xml version="1.0" encoding="UTF-8"?>
<svg width="249px" height="40px" viewBox="0 0 249 40" version="1.1" xmlns="http://www.w3.org/2000/svg" xmlns:xlink="http://www.w3.org/1999/xlink">
    <!-- Generator: Sketch 55.1 (78136) - https://sketchapp.com -->
    <title>desktop_logo</title>
    <desc>Created with Sketch.</desc>
    <g id="desktop_logo" stroke="none" stroke-width="1" fill="none" fill-rule="evenodd">
        <g id="menu-item-copy-2" transform="translate(60.000000, 6.000000)" fill="#FFFDFD" fill-rule="nonzero">
            <path d="M1.275,6.338 L5.763,6.338 C7.59900918,6.338 9.01566168,6.81966185 10.013,7.783 C11.0103383,8.74633815 11.509,10.2083235 11.509,12.169 C11.509,14.1296765 11.0103383,15.5916618 10.013,16.555 C9.01566168,17.5183381 7.59900918,18 5.763,18 L1.275,18 L1.275,6.338 Z M5.763,16.385 C6.99833951,16.385 7.94183008,16.0535033 8.5935,15.3905 C9.24516993,14.7274967 9.571,13.6876738 9.571,12.271 L9.571,12.084 C9.571,10.6559929 9.24516993,9.61050332 8.5935,8.9475 C7.94183008,8.28449669 6.99833951,7.953 5.763,7.953 L3.162,7.953 L3.162,16.385 L5.763,16.385 Z M17.187,18.204 C15.7476595,18.204 14.6766702,17.8243371 13.974,17.065 C13.2713298,16.3056629 12.92,15.127008 12.92,13.529 C12.92,11.930992 13.2713298,10.7523371 13.974,9.993 C14.6766702,9.23366287 15.7476595,8.854 17.187,8.854 C18.4903398,8.854 19.4649968,9.20816312 20.111,9.9165 C20.7570032,10.6248369 21.08,11.749659 21.08,13.291 L21.08,13.971 L14.722,13.971 C14.7673336,14.9343382 14.985498,15.6454977 15.3765,16.1045 C15.767502,16.5635023 16.3766625,16.793 17.204,16.793 C17.8500032,16.793 18.3713313,16.6400015 18.768,16.334 C19.1646686,16.0279985 19.363,15.5576698 19.363,14.923 L21.08,14.923 C21.08,15.9883387 20.7201703,16.8014972 20.0005,17.3625 C19.2808297,17.9235028 18.3430058,18.204 17.187,18.204 Z M19.261,12.645 C19.261,11.0583254 18.5696736,10.265 17.187,10.265 C16.4163295,10.265 15.8383353,10.4548314 15.453,10.8345 C15.0676647,11.2141686 14.8353337,11.8176625 14.756,12.645 L19.261,12.645 Z M26.095,18.204 C24.8709939,18.204 23.9388365,17.9490025 23.2985,17.439 C22.6581635,16.9289975 22.338,16.2886705 22.338,15.518 C22.338,15.3933327 22.3408333,15.3111669 22.3465,15.2715 C22.3521667,15.2318331 22.355,15.2063334 22.355,15.195 L24.072,15.195 L24.072,15.348 C24.072,15.8353358 24.2703313,16.2008321 24.667,16.4445 C25.0636686,16.6881679 25.5679969,16.81 26.18,16.81 C26.7240027,16.81 27.1801648,16.708001 27.5485,16.504 C27.9168352,16.299999 28.101,16.0110019 28.101,15.637 C28.101,15.3423319 27.999001,15.1015009 27.795,14.9145 C27.590999,14.7274991 27.3416681,14.5801672 27.047,14.4725 C26.7523319,14.3648328 26.3273361,14.2373341 25.772,14.09 C25.0919966,13.9199992 24.5366688,13.7500009 24.106,13.58 C23.6753312,13.4099991 23.3098348,13.1550017 23.0095,12.815 C22.7091652,12.4749983 22.559,12.0216695 22.559,11.455 C22.559,10.6389959 22.89333,10.0015023 23.562,9.5425 C24.23067,9.0834977 25.1203278,8.854 26.231,8.854 C26.9223368,8.854 27.5258308,8.95883228 28.0415,9.1685 C28.5571692,9.37816772 28.9538319,9.66999813 29.2315,10.044 C29.5091681,10.4180019 29.648,10.837331 29.648,11.302 L29.631,11.642 L27.914,11.642 L27.914,11.523 C27.914,11.1489981 27.7638348,10.8458345 27.4635,10.6135 C27.1631652,10.3811655 26.7013364,10.265 26.078,10.265 C25.4773303,10.265 25.0381681,10.3698323 24.7605,10.5795 C24.4828319,10.7891677 24.344,11.0356652 24.344,11.319 C24.344,11.6703351 24.5139983,11.9309991 24.854,12.101 C25.1940017,12.2710009 25.7323297,12.4409991 26.469,12.611 C27.1830036,12.7810008 27.7666644,12.9538325 28.22,13.1295 C28.6733356,13.3051675 29.0643317,13.5771648 29.393,13.9455 C29.7216683,14.3138352 29.886,14.8039969 29.886,15.416 C29.886,16.3680048 29.5431701,17.0706644 28.8575,17.524 C28.1718299,17.9773356 27.2510058,18.204 26.095,18.204 Z M31.671,5.709 L33.422,5.709 L33.422,7.511 L31.671,7.511 L31.671,5.709 Z M31.671,9.058 L33.422,9.058 L33.422,18 L31.671,18 L31.671,9.058 Z M37.281,21.094 C36.6463302,21.094 36.0938357,20.9183351 35.6235,20.567 C35.1531643,20.2156649 34.918,19.6830036 34.918,18.969 C34.918,18.0849956 35.3939952,17.4560019 36.346,17.082 C36.0739986,16.9346659 35.8530009,16.7448345 35.683,16.5125 C35.5129992,16.2801655 35.428,16.0166681 35.428,15.722 C35.428,15.3026646 35.5809985,14.9711679 35.887,14.7275 C36.1930015,14.4838321 36.5443314,14.3110005 36.941,14.209 C36.5556647,13.9369986 36.2553344,13.6026686 36.04,13.206 C35.8246656,12.8093314 35.717,12.3673358 35.717,11.88 C35.717,10.9279952 36.0456634,10.1856693 36.703,9.653 C37.3603366,9.12033067 38.2726608,8.854 39.44,8.854 C40.0633365,8.854 40.6356641,8.95033237 41.157,9.143 C41.8710036,8.76899813 42.2733329,8.25333662 42.364,7.596 L44.047,7.596 C44.047,8.1626695 43.8883349,8.63866474 43.571,9.024 C43.2536651,9.40933526 42.8173361,9.66433271 42.262,9.789 C42.8740031,10.3330027 43.18,11.0299958 43.18,11.88 C43.18,12.8206714 42.8513366,13.5573307 42.194,14.09 C41.5366634,14.6226693 40.6300058,14.889 39.474,14.889 L38.063,14.889 C37.7909986,14.889 37.5813341,14.9513327 37.434,15.076 C37.2866659,15.2006673 37.213,15.3593324 37.213,15.552 C37.213,15.7446676 37.2838326,15.9033327 37.4255,16.028 C37.5671674,16.1526673 37.768332,16.215 38.029,16.215 L41.769,16.215 C42.4603368,16.215 43.0156646,16.4303312 43.435,16.861 C43.8543354,17.2916688 44.064,17.8243302 44.064,18.459 C44.064,18.923669 43.9506678,19.3571647 43.724,19.7595 C43.4973322,20.1618353 43.1573356,20.4848321 42.704,20.7285 C42.2506644,20.9721679 41.7066698,21.094 41.072,21.094 L37.281,21.094 Z M39.44,13.614 C40.0973366,13.614 40.5959983,13.4638348 40.936,13.1635 C41.2760017,12.8631652 41.446,12.4353361 41.446,11.88 C41.446,11.3246639 41.278835,10.8968348 40.9445,10.5965 C40.610165,10.2961652 40.10867,10.146 39.44,10.146 C38.7826634,10.146 38.286835,10.2961652 37.9525,10.5965 C37.618165,10.8968348 37.451,11.3246639 37.451,11.88 C37.451,12.4353361 37.618165,12.8631652 37.9525,13.1635 C38.286835,13.4638348 38.7826634,13.614 39.44,13.614 Z M41.089,19.768 C41.4403351,19.768 41.7321655,19.6716676 41.9645,19.479 C42.1968345,19.2863324 42.313,19.0370015 42.313,18.731 C42.313,18.4249985 42.2166676,18.1813342 42.024,18 C41.8313324,17.8186658 41.5820015,17.728 41.276,17.728 L37.689,17.728 C37.3829985,17.728 37.1365009,17.8186658 36.9495,18 C36.7624991,18.1813342 36.669,18.4249985 36.669,18.731 C36.669,19.0483349 36.7624991,19.3004991 36.9495,19.4875 C37.1365009,19.6745009 37.3829985,19.768 37.689,19.768 L41.089,19.768 Z M45.475,9.058 L46.886,9.058 L47.056,10.248 L47.175,10.248 C47.4923349,9.7946644 47.9031641,9.44900119 48.4075,9.211 C48.9118359,8.97299881 49.4813302,8.854 50.116,8.854 C52.0086761,8.854 52.955,9.87965641 52.955,11.931 L52.955,18 L51.204,18 L51.204,12.152 C51.204,11.48333 51.0538348,11.0158347 50.7535,10.7495 C50.4531652,10.4831653 50.0140029,10.35 49.436,10.35 C49.0393313,10.35 48.6710017,10.4491657 48.331,10.6475 C47.9909983,10.8458343 47.7218343,11.1263315 47.5235,11.489 C47.3251657,11.8516685 47.226,12.2709976 47.226,12.747 L47.226,18 L45.475,18 L45.475,9.058 Z M64.413,18.204 C63.0076596,18.204 61.8516712,17.9121696 60.945,17.3285 C60.0383288,16.7448304 59.585,15.8580059 59.585,14.668 L59.602,14.311 L61.472,14.311 C61.472,14.3336668 61.4663334,14.3761664 61.455,14.4385 C61.4436666,14.5008336 61.438,14.5716663 61.438,14.651 C61.438,15.2856698 61.7043307,15.770165 62.237,16.1045 C62.7696693,16.438835 63.4893288,16.606 64.396,16.606 C65.3933383,16.606 66.1469974,16.4586681 66.657,16.164 C67.1670025,15.8693319 67.422,15.4443361 67.422,14.889 C67.422,14.4923314 67.2831681,14.1665013 67.0055,13.9115 C66.7278319,13.6564987 66.3765021,13.4525008 65.9515,13.2995 C65.5264979,13.1464992 64.951337,12.9736676 64.226,12.781 C63.3079954,12.5429988 62.5571696,12.3078345 61.9735,12.0755 C61.3898304,11.8431655 60.894002,11.5031689 60.486,11.0555 C60.077998,10.6078311 59.874,10.021337 59.874,9.296 C59.874,8.26466151 60.2989958,7.47983602 61.149,6.9415 C61.9990042,6.40316397 63.1039932,6.134 64.464,6.134 C65.80134,6.134 66.8864958,6.41166389 67.7195,6.967 C68.5525042,7.52233611 68.969,8.35532778 68.969,9.466 L68.969,9.67 L67.133,9.67 L67.133,9.449 C67.133,8.90499728 66.8893358,8.48283483 66.402,8.1825 C65.9146642,7.88216516 65.2800039,7.732 64.498,7.732 C63.6593291,7.732 62.9935025,7.85666542 62.5005,8.106 C62.0074975,8.35533458 61.761,8.71799762 61.761,9.194 C61.761,9.54533509 61.8969986,9.8371655 62.169,10.0695 C62.4410014,10.3018345 62.780998,10.4916659 63.189,10.639 C63.597002,10.7863341 64.1523298,10.9506658 64.855,11.132 C65.8070048,11.3813346 66.5748304,11.6193322 67.1585,11.846 C67.7421696,12.0726678 68.2436646,12.4098311 68.663,12.8575 C69.0823354,13.3051689 69.292,13.891663 69.292,14.617 C69.292,15.8636729 68.855671,16.7731638 67.983,17.3455 C67.110329,17.9178362 65.9203409,18.204 64.413,18.204 Z M72.284,21.094 C71.7286639,21.094 71.2923349,21.0373339 70.975,20.924 L70.975,19.768 L71.723,19.768 C72.7543385,19.768 73.4456649,19.1786726 73.797,18 L70.329,9.058 L72.165,9.058 L73.831,13.444 C73.9783341,13.8293353 74.1454991,14.3223303 74.3325,14.923 C74.5195009,15.5236697 74.641333,15.9203324 74.698,16.113 L74.783,16.113 C74.8283336,15.9316658 74.9246659,15.5831692 75.072,15.0675 C75.2193341,14.5518308 75.3836658,14.0106695 75.565,13.444 L76.959,9.058 L78.71,9.058 L75.752,17.541 C75.343998,18.674339 74.8850025,19.5498302 74.375,20.1675 C73.8649974,20.7851698 73.1680044,21.094 72.284,21.094 Z M83.283,18.204 C82.0589939,18.204 81.1268365,17.9490025 80.4865,17.439 C79.8461635,16.9289975 79.526,16.2886705 79.526,15.518 C79.526,15.3933327 79.5288333,15.3111669 79.5345,15.2715 C79.5401667,15.2318331 79.543,15.2063334 79.543,15.195 L81.26,15.195 L81.26,15.348 C81.26,15.8353358 81.4583314,16.2008321 81.855,16.4445 C82.2516686,16.6881679 82.7559969,16.81 83.368,16.81 C83.9120027,16.81 84.3681648,16.708001 84.7365,16.504 C85.1048352,16.299999 85.289,16.0110019 85.289,15.637 C85.289,15.3423319 85.187001,15.1015009 84.983,14.9145 C84.778999,14.7274991 84.5296681,14.5801672 84.235,14.4725 C83.9403319,14.3648328 83.5153361,14.2373341 82.96,14.09 C82.2799966,13.9199992 81.7246688,13.7500009 81.294,13.58 C80.8633312,13.4099991 80.4978348,13.1550017 80.1975,12.815 C79.8971652,12.4749983 79.747,12.0216695 79.747,11.455 C79.747,10.6389959 80.08133,10.0015023 80.75,9.5425 C81.41867,9.0834977 82.3083278,8.854 83.419,8.854 C84.1103368,8.854 84.7138308,8.95883228 85.2295,9.1685 C85.7451692,9.37816772 86.1418319,9.66999813 86.4195,10.044 C86.6971681,10.4180019 86.836,10.837331 86.836,11.302 L86.819,11.642 L85.102,11.642 L85.102,11.523 C85.102,11.1489981 84.9518348,10.8458345 84.6515,10.6135 C84.3511652,10.3811655 83.8893365,10.265 83.266,10.265 C82.6653303,10.265 82.2261681,10.3698323 81.9485,10.5795 C81.6708319,10.7891677 81.532,11.0356652 81.532,11.319 C81.532,11.6703351 81.7019983,11.9309991 82.042,12.101 C82.3820017,12.2710009 82.9203296,12.4409991 83.657,12.611 C84.3710036,12.7810008 84.9546644,12.9538325 85.408,13.1295 C85.8613356,13.3051675 86.2523317,13.5771648 86.581,13.9455 C86.9096683,14.3138352 87.074,14.8039969 87.074,15.416 C87.074,16.3680048 86.7311701,17.0706644 86.0455,17.524 C85.3598299,17.9773356 84.4390058,18.204 83.283,18.204 Z M91.001,18.187 C90.3209966,18.187 89.8280015,17.991502 89.522,17.6005 C89.2159985,17.209498 89.063,16.7250029 89.063,16.147 L89.063,10.503 L87.975,10.503 L87.975,9.058 L89.08,9.058 L89.42,6.559 L90.814,6.559 L90.814,9.058 L92.327,9.058 L92.327,10.503 L90.814,10.503 L90.814,15.977 C90.814,16.4983359 91.0576642,16.759 91.545,16.759 L92.327,16.759 L92.327,17.949 C92.1796659,18.0170003 91.9785013,18.0736664 91.7235,18.119 C91.4684987,18.1643336 91.2276678,18.187 91.001,18.187 Z M97.631,18.204 C96.1916595,18.204 95.1206702,17.8243371 94.418,17.065 C93.7153298,16.3056629 93.364,15.127008 93.364,13.529 C93.364,11.930992 93.7153298,10.7523371 94.418,9.993 C95.1206702,9.23366287 96.1916595,8.854 97.631,8.854 C98.9343398,8.854 99.9089968,9.20816312 100.555,9.9165 C101.201003,10.6248369 101.524,11.749659 101.524,13.291 L101.524,13.971 L95.166,13.971 C95.2113336,14.9343382 95.429498,15.6454977 95.8205,16.1045 C96.211502,16.5635023 96.8206625,16.793 97.648,16.793 C98.2940032,16.793 98.8153314,16.6400015 99.212,16.334 C99.6086686,16.0279985 99.807,15.5576698 99.807,14.923 L101.524,14.923 C101.524,15.9883387 101.16417,16.8014972 100.4445,17.3625 C99.7248297,17.9235028 98.7870058,18.204 97.631,18.204 Z M99.705,12.645 C99.705,11.0583254 99.0136736,10.265 97.631,10.265 C96.8603295,10.265 96.2823353,10.4548314 95.897,10.8345 C95.5116647,11.2141686 95.2793337,11.8176625 95.2,12.645 L99.705,12.645 Z M103.326,9.058 L104.737,9.058 L104.907,10.248 L105.026,10.248 C105.332002,9.7946644 105.705998,9.44900119 106.148,9.211 C106.590002,8.97299881 107.09433,8.854 107.661,8.854 C108.817006,8.854 109.593331,9.31866202 109.99,10.248 L110.092,10.248 C110.398002,9.80599779 110.788998,9.46316789 111.265,9.2195 C111.741002,8.97583211 112.26233,8.854 112.829,8.854 C113.667671,8.854 114.324998,9.07783109 114.801,9.5255 C115.277002,9.9731689 115.515,10.6956617 115.515,11.693 L115.515,18 L113.764,18 L113.764,12.033 C113.764,11.4209969 113.630835,10.9875013 113.3645,10.7325 C113.098165,10.4774987 112.727002,10.35 112.251,10.35 C111.695664,10.35 111.231002,10.5709978 110.857,11.013 C110.482998,11.4550022 110.296,12.0329964 110.296,12.747 L110.296,18 L108.545,18 L108.545,12.033 C108.545,11.4209969 108.417501,10.9875013 108.1625,10.7325 C107.907499,10.4774987 107.542002,10.35 107.066,10.35 C106.510664,10.35 106.040335,10.5709978 105.655,11.013 C105.269665,11.4550022 105.077,12.0329964 105.077,12.747 L105.077,18 L103.326,18 L103.326,9.058 Z M120.989,18.204 C119.764994,18.204 118.832837,17.9490025 118.1925,17.439 C117.552163,16.9289975 117.232,16.2886705 117.232,15.518 C117.232,15.3933327 117.234833,15.3111669 117.2405,15.2715 C117.246167,15.2318331 117.249,15.2063334 117.249,15.195 L118.966,15.195 L118.966,15.348 C118.966,15.8353358 119.164331,16.2008321 119.561,16.4445 C119.957669,16.6881679 120.461997,16.81 121.074,16.81 C121.618003,16.81 122.074165,16.708001 122.4425,16.504 C122.810835,16.299999 122.995,16.0110019 122.995,15.637 C122.995,15.3423319 122.893001,15.1015009 122.689,14.9145 C122.484999,14.7274991 122.235668,14.5801672 121.941,14.4725 C121.646332,14.3648328 121.221336,14.2373341 120.666,14.09 C119.985997,13.9199992 119.430669,13.7500009 119,13.58 C118.569331,13.4099991 118.203835,13.1550017 117.9035,12.815 C117.603165,12.4749983 117.453,12.0216695 117.453,11.455 C117.453,10.6389959 117.78733,10.0015023 118.456,9.5425 C119.12467,9.0834977 120.014328,8.854 121.125,8.854 C121.816337,8.854 122.419831,8.95883228 122.9355,9.1685 C123.451169,9.37816772 123.847832,9.66999813 124.1255,10.044 C124.403168,10.4180019 124.542,10.837331 124.542,11.302 L124.525,11.642 L122.808,11.642 L122.808,11.523 C122.808,11.1489981 122.657835,10.8458345 122.3575,10.6135 C122.057165,10.3811655 121.595336,10.265 120.972,10.265 C120.37133,10.265 119.932168,10.3698323 119.6545,10.5795 C119.376832,10.7891677 119.238,11.0356652 119.238,11.319 C119.238,11.6703351 119.407998,11.9309991 119.748,12.101 C120.088002,12.2710009 120.62633,12.4409991 121.363,12.611 C122.077004,12.7810008 122.660664,12.9538325 123.114,13.1295 C123.567336,13.3051675 123.958332,13.5771648 124.287,13.9455 C124.615668,14.3138352 124.78,14.8039969 124.78,15.416 C124.78,16.3680048 124.43717,17.0706644 123.7515,17.524 C123.06583,17.9773356 122.145006,18.204 120.989,18.204 Z M131.41,6.338 L133.297,6.338 L133.297,16.368 L139.366,16.368 L139.366,18 L131.41,18 L131.41,6.338 Z M144.738,18.204 C143.321326,18.204 142.258837,17.8215038 141.5505,17.0565 C140.842163,16.2914962 140.488,15.1156746 140.488,13.529 C140.488,11.9423254 140.842163,10.7665038 141.5505,10.0015 C142.258837,9.23649617 143.321326,8.854 144.738,8.854 C146.154674,8.854 147.219996,9.23649617 147.934,10.0015 C148.648004,10.7665038 149.005,11.9423254 149.005,13.529 C149.005,15.1156746 148.648004,16.2914962 147.934,17.0565 C147.219996,17.8215038 146.154674,18.204 144.738,18.204 Z M144.738,16.759 C145.599338,16.759 146.225498,16.5068359 146.6165,16.0025 C147.007502,15.4981641 147.203,14.7020054 147.203,13.614 L147.203,13.444 C147.203,12.3559946 147.007502,11.5598359 146.6165,11.0555 C146.225498,10.5511641 145.599338,10.299 144.738,10.299 C143.887996,10.299 143.267502,10.5511641 142.8765,11.0555 C142.485498,11.5598359 142.29,12.3559946 142.29,13.444 L142.29,13.614 C142.29,14.7020054 142.485498,15.4981641 142.8765,16.0025 C143.267502,16.5068359 143.887996,16.759 144.738,16.759 Z M150.773,9.058 L152.184,9.058 L152.354,10.248 L152.473,10.248 C152.790335,9.7946644 153.201164,9.44900119 153.7055,9.211 C154.209836,8.97299881 154.77933,8.854 155.414,8.854 C157.306676,8.854 158.253,9.87965641 158.253,11.931 L158.253,18 L156.502,18 L156.502,12.152 C156.502,11.48333 156.351835,11.0158347 156.0515,10.7495 C155.751165,10.4831653 155.312003,10.35 154.734,10.35 C154.337331,10.35 153.969002,10.4491657 153.629,10.6475 C153.288998,10.8458343 153.019834,11.1263315 152.8215,11.489 C152.623166,11.8516685 152.524,12.2709976 152.524,12.747 L152.524,18 L150.773,18 L150.773,9.058 Z M163.506,18.204 C162.372661,18.204 161.500003,17.8215038 160.888,17.0565 C160.275997,16.2914962 159.97,15.1156746 159.97,13.529 C159.97,11.9649922 160.275997,10.7948372 160.888,10.0185 C161.500003,9.24216278 162.332995,8.854 163.387,8.854 C164.62234,8.854 165.523331,9.26199592 166.09,10.078 L166.192,10.078 L166.192,5.709 L167.943,5.709 L167.943,18 L166.549,18 L166.379,16.81 L166.26,16.81 C165.976665,17.2633356 165.594169,17.6089988 165.1125,17.847 C164.630831,18.0850012 164.095336,18.204 163.506,18.204 Z M163.999,16.725 C164.758337,16.725 165.313665,16.4643359 165.665,15.943 C166.016335,15.4216641 166.192,14.6510051 166.192,13.631 L166.192,13.495 C166.192,11.3869895 165.461007,10.333 163.999,10.333 C163.194329,10.333 162.622002,10.5738309 162.282,11.0555 C161.941998,11.5371691 161.772,12.344661 161.772,13.478 L161.772,13.631 C161.772,14.7416722 161.941998,15.5349976 162.282,16.011 C162.622002,16.4870024 163.194329,16.725 163.999,16.725 Z M173.961,18.204 C172.544326,18.204 171.481837,17.8215038 170.7735,17.0565 C170.065163,16.2914962 169.711,15.1156746 169.711,13.529 C169.711,11.9423254 170.065163,10.7665038 170.7735,10.0015 C171.481837,9.23649617 172.544326,8.854 173.961,8.854 C175.377674,8.854 176.442996,9.23649617 177.157,10.0015 C177.871004,10.7665038 178.228,11.9423254 178.228,13.529 C178.228,15.1156746 177.871004,16.2914962 177.157,17.0565 C176.442996,17.8215038 175.377674,18.204 173.961,18.204 Z M173.961,16.759 C174.822338,16.759 175.448498,16.5068359 175.8395,16.0025 C176.230502,15.4981641 176.426,14.7020054 176.426,13.614 L176.426,13.444 C176.426,12.3559946 176.230502,11.5598359 175.8395,11.0555 C175.448498,10.5511641 174.822338,10.299 173.961,10.299 C173.110996,10.299 172.490502,10.5511641 172.0995,11.0555 C171.708498,11.5598359 171.513,12.3559946 171.513,13.444 L171.513,13.614 C171.513,14.7020054 171.708498,15.4981641 172.0995,16.0025 C172.490502,16.5068359 173.110996,16.759 173.961,16.759 Z M179.996,9.058 L181.407,9.058 L181.577,10.248 L181.696,10.248 C182.013335,9.7946644 182.424164,9.44900119 182.9285,9.211 C183.432836,8.97299881 184.00233,8.854 184.637,8.854 C186.529676,8.854 187.476,9.87965641 187.476,11.931 L187.476,18 L185.725,18 L185.725,12.152 C185.725,11.48333 185.574835,11.0158347 185.2745,10.7495 C184.974165,10.4831653 184.535003,10.35 183.957,10.35 C183.560331,10.35 183.192002,10.4491657 182.852,10.6475 C182.511998,10.8458343 182.242834,11.1263315 182.0445,11.489 C181.846166,11.8516685 181.747,12.2709976 181.747,12.747 L181.747,18 L179.996,18 L179.996,9.058 Z" id="DesignSystemsLondon"></path>
        </g>
        <path d="M21.102,37.7953333 L37.7953333,37.7953333 L37.7953333,21.1013333 L21.102,21.1013333 L21.102,37.7953333 Z M11.6533333,37.7953333 L18.8986667,37.7953333 L18.8986667,21.1013333 L11.6533333,21.1013333 L11.6533333,37.7953333 Z M2.20466667,37.7953333 L9.44866667,37.7953333 L9.44866667,21.1013333 L2.20466667,21.1013333 L2.20466667,37.7953333 Z M17.3386667,2.20466667 L2.20466667,17.3393333 L2.20466667,2.20466667 L17.3386667,2.20466667 Z M18.8986667,18.898 L11.6526667,18.898 L9.44866667,18.898 L3.764,18.898 L18.8986667,3.76266667 L18.8986667,18.898 Z M28.716,18.898 L21.102,18.898 L21.102,11.2846667 C21.7973333,15.1553333 24.8453333,18.2026667 28.716,18.898 L28.716,18.898 Z M30.394,2.362 C34.3886667,2.362 37.638,5.61133333 37.638,9.606 C37.638,13.6 34.3886667,16.85 30.394,16.85 C26.4,16.85 23.15,13.6 23.15,9.606 C23.15,5.61133333 26.4,2.362 30.394,2.362 L30.394,2.362 Z M32.072,18.898 C36.4886667,18.1046667 39.8433333,14.2506667 39.8433333,9.606 C39.8433333,4.38733333 35.6126667,0.156666667 30.394,0.156666667 C25.7493333,0.156666667 21.896,3.51133333 21.102,7.928 L21.102,0 L0,0 L0,18.898 L0,21.1013333 L0,40 L9.44866667,40 L11.6526667,40 L18.8986667,40 L21.102,40 L40,40 L40,18.898 L32.072,18.898 Z" id="Fill-1" fill="#FFFDFD"></path>
    </g>
</svg>