<?xml version="1.0" encoding="UTF-8"?>
<svg width="141px" height="140px" viewBox="0 0 141 140" version="1.1" xmlns="http://www.w3.org/2000/svg" xmlns:xlink="http://www.w3.org/1999/xlink">
    <!-- Generator: Sketch 55.1 (78136) - https://sketchapp.com -->
    <title>Group 8</title>
    <desc>Created with Sketch.</desc>
    <g id="Page-1" stroke="none" stroke-width="1" fill="none" fill-rule="evenodd">
        <g id="DSL-Desktop---1280px-Copy-3" transform="translate(-91.000000, -3956.000000)">
            <g id="Group-8" transform="translate(91.000000, 3956.000000)">
                <polygon id="Fill-1" fill="#211E40" points="0 139.87156 139.87156 139.87156 139.87156 0 0 0"></polygon>
                <g id="Group-26" transform="translate(0.000000, 0.099182)">
                    <polygon id="Fill-2" fill="#FFFDFD" points="4.61852778e-13 104.90367 70.0356881 139.772404 70.0356881 104.804514 4.61852778e-13 69.9357798"></polygon>
                    <polygon id="Fill-3" fill="#FFB7B9" points="4.61852778e-13 69.9357798 70.0356881 104.804514 70.0356881 69.8366239 4.61852778e-13 34.9678899"></polygon>
                    <polygon id="Fill-4" fill="#FF4730" points="4.61852778e-13 34.9678899 70.0356881 69.8366239 70.0356881 34.8687339 4.61852778e-13 -1.27897692e-13"></polygon>
                    <polygon id="Fill-5" fill="#FFFDFD" points="70.0356881 104.90367 140.071376 139.772404 140.071376 104.804514 70.0356881 69.9357798"></polygon>
                    <polygon id="Fill-6" fill="#FFB7B9" points="70.0356881 69.9357798 140.071376 104.804514 140.071376 69.8366239 70.0356881 34.9678899"></polygon>
                    <polygon id="Fill-7" fill="#FF4730" points="70.0356881 34.9678899 140.071376 69.8366239 140.071376 34.8687339 70.0356881 -1.27897692e-13"></polygon>
                </g>
            </g>
        </g>
    </g>
</svg>