<?xml version="1.0" encoding="UTF-8"?>
<svg width="455px" height="151px" viewBox="0 0 455 151" version="1.1" xmlns="http://www.w3.org/2000/svg" xmlns:xlink="http://www.w3.org/1999/xlink">
    <!-- Generator: Sketch 55.1 (78136) - https://sketchapp.com -->
    <title>sponsor_image</title>
    <desc>Created with Sketch.</desc>
    <g id="sponsor_image" stroke="none" stroke-width="1" fill="none" fill-rule="evenodd">
        <g id="Group-13-Copy">
            <circle id="Oval" fill="#FFFDFD" cx="19" cy="95" r="19"></circle>
            <circle id="Oval-Copy-70" fill="#FFFDFD" cx="19" cy="132" r="19"></circle>
            <circle id="Oval-Copy-67" fill="#FFFDFD" cx="57" cy="95" r="19"></circle>
            <circle id="Oval-Copy-71" fill="#FFFDFD" cx="57" cy="132" r="19"></circle>
            <circle id="Oval" fill="#FFFDFD" cx="95" cy="95" r="19"></circle>
            <circle id="Oval-Copy-70" fill="#FFFDFD" cx="95" cy="132" r="19"></circle>
            <circle id="Oval-Copy-67" fill="#FFFDFD" cx="132" cy="95" r="19"></circle>
            <circle id="Oval-Copy-71" fill="#FFFDFD" cx="132" cy="132" r="19"></circle>
            <circle id="Oval-Copy-70" fill="#FFFDFD" cx="19" cy="57" r="19"></circle>
            <circle id="Oval-Copy-71" fill="#FFFDFD" cx="57" cy="57" r="19"></circle>
            <circle id="Oval-Copy-70" fill="#FFFDFD" cx="95" cy="57" r="19"></circle>
            <circle id="Oval-Copy-71" fill="#FFFDFD" cx="132" cy="57" r="19"></circle>
            <circle id="Oval" fill="#FFFDFD" cx="171" cy="95" r="19"></circle>
            <circle id="Oval-Copy-70" fill="#FFFDFD" cx="171" cy="132" r="19"></circle>
            <circle id="Oval-Copy-67" fill="#FFFDFD" cx="208" cy="95" r="19"></circle>
            <circle id="Oval-Copy-71" fill="#FFFDFD" cx="208" cy="132" r="19"></circle>
            <circle id="Oval-Copy-70" fill="#FFFDFD" cx="171" cy="57" r="19"></circle>
            <circle id="Oval-Copy-67" fill="#FFFDFD" cx="208" cy="19" r="19"></circle>
            <circle id="Oval-Copy-71" fill="#FFFDFD" cx="208" cy="57" r="19"></circle>
            <circle id="Oval" fill="#FFFDFD" cx="246" cy="95" r="19"></circle>
            <circle id="Oval-Copy-70" fill="#FFFDFD" cx="246" cy="132" r="19"></circle>
            <circle id="Oval-Copy-67" fill="#FFFDFD" cx="284" cy="95" r="19"></circle>
            <circle id="Oval-Copy-71" fill="#FFFDFD" cx="284" cy="132" r="19"></circle>
            <circle id="Oval" fill="#FFFDFD" cx="246" cy="19" r="19"></circle>
            <circle id="Oval-Copy-70" fill="#FFFDFD" cx="246" cy="57" r="19"></circle>
            <circle id="Oval-Copy-67" fill="#FFFDFD" cx="284" cy="19" r="19"></circle>
            <circle id="Oval-Copy-71" fill="#FFFDFD" cx="284" cy="57" r="19"></circle>
            <circle id="Oval" fill="#FFFDFD" cx="322" cy="95" r="19"></circle>
            <circle id="Oval-Copy-70" fill="#FFFDFD" cx="322" cy="132" r="19"></circle>
            <circle id="Oval-Copy-67" fill="#FFFDFD" cx="360" cy="95" r="19"></circle>
            <circle id="Oval-Copy-71" fill="#FFFDFD" cx="360" cy="132" r="19"></circle>
            <circle id="Oval" fill="#FFFDFD" cx="322" cy="19" r="19"></circle>
            <circle id="Oval-Copy-70" fill="#FFFDFD" cx="322" cy="57" r="19"></circle>
            <circle id="Oval-Copy-67" fill="#FFFDFD" cx="360" cy="19" r="19"></circle>
            <circle id="Oval-Copy-71" fill="#FFFDFD" cx="360" cy="57" r="19"></circle>
            <circle id="Oval" fill="#FFFDFD" cx="398" cy="95" r="19"></circle>
            <circle id="Oval-Copy-70" fill="#FFFDFD" cx="398" cy="132" r="19"></circle>
            <circle id="Oval-Copy-67" fill="#FFFDFD" cx="436" cy="95" r="19"></circle>
            <circle id="Oval-Copy-71" fill="#FFFDFD" cx="436" cy="132" r="19"></circle>
            <circle id="Oval" fill="#FFFDFD" cx="398" cy="19" r="19"></circle>
            <circle id="Oval-Copy-70" fill="#FFFDFD" cx="398" cy="57" r="19"></circle>
            <circle id="Oval-Copy-67" fill="#FFFDFD" cx="436" cy="19" r="19"></circle>
            <circle id="Oval-Copy-71" fill="#FFFDFD" cx="436" cy="57" r="19"></circle>
            <circle id="Oval" fill="#FFB8BA" cx="19" cy="19" r="19"></circle>
            <circle id="Oval-Copy-67" fill="#FFB8BA" cx="57" cy="19" r="19"></circle>
            <circle id="Oval" fill="#FFB8BA" cx="95" cy="19" r="19"></circle>
            <circle id="Oval-Copy-67" fill="#FFB8BA" cx="132" cy="19" r="19"></circle>
            <circle id="Oval" fill="#FFB8BA" cx="171" cy="19" r="19"></circle>
        </g>
    </g>
</svg>