<?xml version="1.0" encoding="UTF-8"?>
<svg width="48px" height="48px" viewBox="0 0 48 48" version="1.1" xmlns="http://www.w3.org/2000/svg" xmlns:xlink="http://www.w3.org/1999/xlink">
    <!-- Generator: Sketch 55.1 (78136) - https://sketchapp.com -->
    <title>yld_footer</title>
    <desc>Created with Sketch.</desc>
    <g id="yld_footer" stroke="none" stroke-width="1" fill="none" fill-rule="evenodd">
        <g id="logo-square-copy">
            <rect id="Rectangle-7" fill="#FFFDFD" x="0" y="0" width="48" height="48"></rect>
            <path d="M17.3828819,18.0751725 C17.3828819,16.625383 16.2078215,15.4503226 14.758032,15.4503226 C13.3082424,15.4503226 12.1327994,16.625383 12.1327994,18.0751725 C12.1327994,19.5249621 13.3082424,20.7004051 14.758032,20.7004051 C16.2078215,20.7004051 17.3828819,19.5249621 17.3828819,18.0751725 Z M30.8503516,22.3629376 C29.4028579,22.3629376 28.2251191,23.5402937 28.2251191,24.9881701 C28.2251191,26.4352812 29.4028579,27.61302 30.8503516,27.61302 C32.2978454,27.61302 33.4752015,26.4352812 33.4752015,24.9881701 C33.4752015,23.5402937 32.2978454,22.3629376 30.8503516,22.3629376 Z M37,14.4 L37,30.9820876 L33.4996899,30.9820876 L33.4996899,30.5018854 C32.6965471,30.8894908 31.8004249,31.1129474 30.8503516,31.1129474 C27.4728662,31.1129474 24.7251916,28.3652729 24.7251916,24.9881701 C24.7251916,21.610302 27.4728662,18.8626275 30.8503516,18.8626275 C31.8004249,18.8626275 32.6965471,19.0864667 33.4996899,19.4740721 L33.4996899,14.4 L37,14.4 Z M24.7251916,14.4 L24.7251916,24.9881701 L24.7251916,30.9820876 L21.2248816,30.9820876 L21.2248816,21.1346915 L14.7584146,35.686538 L10.9282764,35.686538 L12.8605639,31.3383172 L8,20.7004051 L11.8485044,20.7004051 L14.758032,27.0685358 L17.5879722,20.7004051 L21.2248816,20.7004051 L21.2248816,14.4 L24.7251916,14.4 Z" id="Fill-1" fill="#211E40"></path>
        </g>
    </g>
</svg>